<?xml version="1.0" encoding="UTF-8" standalone="no"?>
<!-- Created with Inkscape (http://www.inkscape.org/) -->
<svg xmlns:inkscape="http://www.inkscape.org/namespaces/inkscape" xmlns:rdf="http://www.w3.org/1999/02/22-rdf-syntax-ns#" xmlns="http://www.w3.org/2000/svg" xmlns:xlink="http://www.w3.org/1999/xlink" xmlns:ns1="http://sozi.baierouge.fr" xmlns:cc="http://creativecommons.org/ns#" xmlns:sodipodi="http://sodipodi.sourceforge.net/DTD/sodipodi-0.dtd" xmlns:dc="http://purl.org/dc/elements/1.1/" id="svg2" xml:space="preserve" viewBox="0 0 50.951 31.908" version="1.1" inkscape:version="0.91 r13725">
  <defs id="defs6">
    <radialGradient id="radialGradient44" gradientUnits="userSpaceOnUse" cy="11.05" cx="25.3" gradientTransform="matrix(.46528 0 0 .45336 3.3704 15.375)" r="9.225">
      <stop id="stop46" style="stop-color:#a9e858" offset="0"/>
      <stop id="stop48" style="stop-color:#77a63a" offset="1"/>
    </radialGradient>
    <radialGradient id="radialGradient62" gradientUnits="userSpaceOnUse" cy="10.55" cx="24.2" gradientTransform="matrix(.46528 0 0 .45344 3.3704 15.832)" r="10.3">
      <stop id="stop64" style="stop-color:#a9e858" offset="0"/>
      <stop id="stop66" style="stop-color:#77a63a" offset="1"/>
    </radialGradient>
    <clipPath id="clipPath90">
      <path id="path92" d="m20 15.527h5v7h-5v-7z" inkscape:connector-curvature="0"/>
    </clipPath>
    <mask id="mask94">
      <g id="g96">
        <g id="g98" clip-path="url(#clipPath90)">
          <path id="path100" style="fill:#000000;fill-opacity:.19920" d="m20 15.527h5v7h-5v-7z" inkscape:connector-curvature="0"/>
        </g>
      </g>
    </mask>
    <clipPath id="clipPath106">
      <path id="path108" d="m20 15.527h5v7h-5v-7z" inkscape:connector-curvature="0"/>
    </clipPath>
    <clipPath id="clipPath110">
      <path id="path112" d="m20 16h5v7h-5v-7z" inkscape:connector-curvature="0"/>
    </clipPath>
    <radialGradient id="radialGradient164" gradientUnits="userSpaceOnUse" cy="20.05" cx="58.45" gradientTransform="matrix(.46528 0 0 .46528 -0.0696 6.8666)" r="12.338">
      <stop id="stop166" style="stop-color:#a9e858" offset="0"/>
      <stop id="stop168" style="stop-color:#77a63a" offset="1"/>
    </radialGradient>
    <radialGradient id="radialGradient182" gradientUnits="userSpaceOnUse" cy="19.35" cx="57" gradientTransform="matrix(.46528 0 0 .46488 -0.0696 7.5258)" r="13.775">
      <stop id="stop184" style="stop-color:#a9e858" offset="0"/>
      <stop id="stop186" style="stop-color:#77a63a" offset="1"/>
    </radialGradient>
    <clipPath id="clipPath210">
      <path id="path212" d="m33 9.5266h7v9h-7v-9z" inkscape:connector-curvature="0"/>
    </clipPath>
    <mask id="mask214">
      <g id="g216">
        <g id="g218" clip-path="url(#clipPath210)">
          <path id="path220" style="fill:#000000;fill-opacity:.19920" d="m33 9.5266h7v9h-7v-9z" inkscape:connector-curvature="0"/>
        </g>
      </g>
    </mask>
    <clipPath id="clipPath226">
      <path id="path228" d="m33 9.5266h7v9h-7v-9z" inkscape:connector-curvature="0"/>
    </clipPath>
    <clipPath id="clipPath230">
      <path id="path232" d="m33 10h7v9h-7v-9z" inkscape:connector-curvature="0"/>
    </clipPath>
    <radialGradient id="radialGradient284" gradientUnits="userSpaceOnUse" cy="25.4" cx="12.55" gradientTransform="matrix(.46528 0 0 .46496 -0.0696 1.897)" r="15.388">
      <stop id="stop286" style="stop-color:#a9e858" offset="0"/>
      <stop id="stop288" style="stop-color:#77a63a" offset="1"/>
    </radialGradient>
    <radialGradient id="radialGradient302" gradientUnits="userSpaceOnUse" cy="27.45" cx="10.5" gradientTransform="matrix(.46528 0 0 .46496 -0.0696 -.010970)" r="16.25">
      <stop id="stop304" style="stop-color:#a9e858" offset="0"/>
      <stop id="stop306" style="stop-color:#77a63a" offset="1"/>
    </radialGradient>
    <clipPath id="clipPath328">
      <path id="path330" d="m13 4.5266h7v11h-7v-11z" inkscape:connector-curvature="0"/>
    </clipPath>
    <mask id="mask332">
      <g id="g334">
        <g id="g336" clip-path="url(#clipPath328)">
          <path id="path338" style="fill:#000000;fill-opacity:.19920" d="m13 4.5266h7v11h-7v-11z" inkscape:connector-curvature="0"/>
        </g>
      </g>
    </mask>
    <clipPath id="clipPath344">
      <path id="path346" d="m13 4.5266h7v11h-7v-11z" inkscape:connector-curvature="0"/>
    </clipPath>
    <clipPath id="clipPath348">
      <path id="path350" d="m13 5h7v11h-7v-11z" inkscape:connector-curvature="0"/>
    </clipPath>
    <radialGradient id="radialGradient406" gradientUnits="userSpaceOnUse" cy="33.4" cx="42.05" gradientTransform="matrix(.46528 0 0 .46496 -0.0696 -5.5462)" r="16.725">
      <stop id="stop408" style="stop-color:#a9e858" offset="0"/>
      <stop id="stop410" style="stop-color:#77a63a" offset="1"/>
    </radialGradient>
    <radialGradient id="radialGradient424" gradientUnits="userSpaceOnUse" cy="35.6" cx="39.85" gradientTransform="matrix(.46528 0 0 .46496 -0.0696 -7.5926)" r="17.65">
      <stop id="stop426" style="stop-color:#a9e858" offset="0"/>
      <stop id="stop428" style="stop-color:#77a63a" offset="1"/>
    </radialGradient>
    <clipPath id="clipPath450">
      <path id="path452" d="m27 0.52663h8v11h-8v-11z" inkscape:connector-curvature="0"/>
    </clipPath>
    <mask id="mask454">
      <g id="g456">
        <g id="g458" clip-path="url(#clipPath450)">
          <path id="path460" style="fill:#000000;fill-opacity:.19920" d="m27 0.52663h8v11h-8v-11z" inkscape:connector-curvature="0"/>
        </g>
      </g>
    </mask>
    <clipPath id="clipPath466">
      <path id="path468" d="m27 0.52663h8v11h-8v-11z" inkscape:connector-curvature="0"/>
    </clipPath>
    <clipPath id="clipPath470">
      <path id="path472" d="m27 1h8v11h-8v-11z" inkscape:connector-curvature="0"/>
    </clipPath>
  </defs>
  <g id="g10" transform="matrix(1.25 0 0 -1.25 0 31.908)">
    <g id="g12">
      <path id="path14" style="fill-rule:evenodd;fill:#3c571c" d="m23.379 19.128c0.219 0.418 0.605 0.684 1.164 0.789 0.277 0.047 0.535 0.055 0.766 0.024-0.11-0.016-0.223-0.039-0.348-0.071-0.219-0.062-0.332-0.152-0.352-0.277 0-0.109 0.024-0.25 0.071-0.418 0.031-0.219-0.024-0.496-0.16-0.84-0.188-0.449-0.489-0.859-0.911-1.234-0.464-0.418-0.953-0.664-1.464-0.742 0.48 1.179 0.894 2.101 1.234 2.769z" inkscape:connector-curvature="0"/>
      <path id="path16" style="fill-rule:evenodd;fill:#446120" d="m22.656 17.917c0.481-0.14 0.985-0.047 1.512 0.282 0.281 0.167 0.504 0.355 0.676 0.558-0.032-0.344-0.153-0.707-0.371-1.094-0.418-0.777-1.055-1.312-1.911-1.605-0.742-0.25-1.726-0.344-2.953-0.281-1.254 0.078-1.613 0.179-1.07 0.304 0.094 0.016 0.676 0.371 1.746 1.071 1.117 0.648 1.906 0.906 2.371 0.765z" inkscape:connector-curvature="0"/>
      <path id="path18" style="fill-rule:evenodd;fill:#6e9c33" d="m16.516 16.988c2.605-0.344 3.847-0.598 3.722-0.77-0.187-0.199-0.441-0.355-0.769-0.465-0.617-0.168-1.574-0.23-2.86-0.183-0.668 0.015-1.281 0.144-1.839 0.394-0.993 0.387-1.891 1.063-2.7 2.024l-0.183 0.234 0.765-0.422c0.575-0.277 1.032-0.41 1.375-0.394 0.649 0.015 1.071 0.015 1.254 0 0.481-0.047 0.891-0.188 1.235-0.418z" inkscape:connector-curvature="0"/>
      <path id="path20" style="fill-rule:evenodd;fill:#6b9631" d="m11.582 21.058 0.957-1.813c0.789-1.304 1.551-2.203 2.277-2.699 0.715-0.496 1.993-0.816 3.84-0.953-0.558-0.094-1.211-0.117-1.953-0.07-1.488 0.105-2.715 0.527-3.676 1.254-0.808 0.589-1.289 1.48-1.441 2.675v1.606h-0.004z" inkscape:connector-curvature="0"/>
      <path id="path22" style="fill-rule:evenodd;fill:#6b9630" d="m22.332 23.409c0.016-0.14-0.352-0.242-1.094-0.304-0.746-0.047-1.187 0.015-1.328 0.187-0.121 0.137-0.246 0.379-0.371 0.719l-0.137 0.445c0.215 0.075 0.426 0.246 0.625 0.508 0.094 0.125 0.211 0.297 0.352 0.516 0.078 0.074 0.199 0.058 0.371-0.047 0.094-0.063 0.195-0.133 0.305-0.211 0.047 0 0.121-0.07 0.23-0.211 0.063-0.078 0.149-0.199 0.258-0.371 0.121-0.141 0.262-0.086 0.418 0.164l0.094-0.164c0.074-0.094 0.168-0.109 0.277-0.047l0.512 0.418c-0.09-0.215-0.184-0.449-0.278-0.695-0.171-0.496-0.25-0.801-0.234-0.907z" inkscape:connector-curvature="0"/>
      <path id="path24" style="fill-rule:evenodd;fill:#5c822a" d="m15.074 16.406c-0.187 0.015-0.406 0.117-0.652 0.3-0.496 0.375-0.906 0.961-1.234 1.77-0.606 1.473-0.954 2.332-1.047 2.582-0.215 0.652-0.196 0.969 0.07 0.953 0.246-0.016 0.434 0.063 0.559 0.234l0.277 0.606c0.281 0.293 0.676 0.148 1.187-0.445 0.297-0.34 0.575-2.34 0.84-6z" inkscape:connector-curvature="0"/>
      <path id="path26" style="fill-rule:evenodd;fill:#89bf3f" d="m14.422 23.546 0.535 0.817c0.543 0.558 1.301 0.898 2.277 1.023 1.211 0.172 2.258 0.078 3.141-0.281 0.934-0.371 1.559-0.977 1.887-1.813 0.402-0.976 0.316-2.101-0.258-3.375-0.637-1.41-1.59-2.14-2.859-2.187-1.383-0.043-2.629 0.605-3.747 1.957-1.117 1.379-1.441 2.668-0.976 3.859z" inkscape:connector-curvature="0"/>
      <path id="path28" style="fill-rule:evenodd;fill:#7bab38" d="m20.52 22.175c0.48 0.309 0.828 0.652 1.046 1.024 0.231-1.274 0.192-2.45-0.117-3.536-0.187-0.683-0.566-1.07-1.14-1.164-0.961 0-1.871-0.047-2.723-0.14-1.055-0.125-1.715 0.148-1.977 0.816-0.093 0.758-0.179 1.191-0.257 1.301-0.278 0.449-0.387 0.808-0.325 1.07 0.11 0.481 0.813 0.551 2.118 0.211 1.285-0.328 2.41-0.187 3.375 0.418z" inkscape:connector-curvature="0"/>
      <path id="path30" style="fill-rule:evenodd;fill:#689131" d="m14.375 23.269c0.063 0.094 0.109 0.246 0.141 0.465l0.859-0.141c0.637-0.172 1.141-0.418 1.512-0.742 0.25-0.219 0.367-0.399 0.351-0.535l0.442-1.094c0.402-0.777 0.851-1.281 1.347-1.516 0.36-0.168 0.684 0.102 0.977 0.817 0.109-0.852 0-1.387-0.324-1.606-0.325-0.203-2.157 0.606-5.489 2.418 0.016 0.297 0.039 0.598 0.067 0.91 0.047 0.621 0.086 0.961 0.117 1.024z" inkscape:connector-curvature="0"/>
      <path id="path32" style="fill-rule:evenodd;fill:#a5e64c" d="m20.957 23.199c0.141-0.403 0.133-0.848-0.019-1.329-0.094-0.246-0.196-0.449-0.305-0.601 0.109 0.57 0.109 1.117 0 1.625-0.094 0.406-0.223 0.683-0.395 0.84-0.109 0.109-0.234 0.203-0.371 0.281l-0.164 0.066c-0.496 0.032-0.961 0.016-1.398-0.047-0.262-0.031-0.567-0.144-0.907-0.347l-0.418-0.301 0.282 0.254c0.215 0.199 0.418 0.348 0.601 0.441 0.297 0.141 0.778 0.203 1.446 0.188-0.125 0.105-0.289 0.215-0.489 0.324l-0.304 0.164c-0.711-0.016-1.254-0.18-1.629-0.488l-0.86-0.746 0.164 0.258c0.153 0.214 0.34 0.402 0.555 0.554 0.328 0.266 0.863 0.461 1.606 0.582-0.247 0.11-0.457 0.172-0.625 0.188-0.188 0.031-0.473-0.031-0.864-0.188-0.465-0.183-0.781-0.433-0.953-0.742l-0.348-0.676c0 0.125 0.075 0.348 0.231 0.676 0.203 0.402 0.418 0.649 0.652 0.742 0.356 0.172 0.692 0.274 1 0.305-0.449 0.062-0.754 0.07-0.906 0.023l-0.234-0.046 0.465 0.117c0.343 0.078 0.613 0.101 0.816 0.07l0.16-0.023 0.606 0.117c0.156 0 0.281-0.012 0.375-0.024l-0.817-0.164 0.442-0.211 0.234-0.14v0.074c0.062 0.059 0.215 0.121 0.465 0.184 0.387 0.109 0.797 0.101 1.234-0.024-0.543 0.031-0.879 0.024-1-0.023l-0.488-0.348 0.441-0.258c0.11-0.062 0.192-0.14 0.254-0.23l0.164 0.183c0.141 0.141 0.305 0.227 0.489 0.258 0.293 0.063 0.644 0.047 1.046-0.047-0.621 0.047-0.984 0-1.093-0.14-0.078-0.094-0.121-0.188-0.137-0.282v-0.117l0.371-0.137c0.277-0.152 0.488-0.433 0.625-0.835z" inkscape:connector-curvature="0"/>
      <g id="g34">
        <g id="g36">
          <g id="g42">
            <path id="path50" style="fill-rule:evenodd;fill:url(#radialGradient44)" d="m13.57 23.593c0.051 0.008 0.098 0.02 0.153 0.023h0.023c0.086 0.145 0.149 0.161 0.188 0.047 0.004-0.007 0.007-0.015 0.011-0.023 0.223 0.012 0.45-0.02 0.688-0.09 0.121-0.047 0.519-0.219 1.183-0.516 0.559-0.246 0.954-0.535 1.188-0.859 0.031-0.031 0.164-0.309 0.394-0.836 0.219-0.453 0.504-0.883 0.864-1.305 0.433-0.496 0.883-0.851 1.347-1.07 0.434-0.199 0.707-0.66 0.817-1.371 0.094-0.543 0.512-0.777 1.254-0.699-0.387-0.387-1.133-0.707-2.235-0.953-0.617-0.125-1.316-0.172-2.09-0.141-1.535 0.063-2.652 0.481-3.351 1.258-0.902 1.008-1.289 2.187-1.164 3.535 0.047 0.637 0.281 1.504 0.699 2.606 0.055 0.132 0.106 0.242 0.149 0.328-0.012 0.004-0.024 0.011-0.032 0.019-0.035 0.024-0.062 0.039-0.086 0.047zm-0.078-0.094c-0.015-0.136-0.054-0.207-0.117-0.207-0.078 0-0.234-0.078-0.465-0.234-0.187-0.125-0.258-0.133-0.211-0.024 0.121 0.27 0.391 0.45 0.813 0.547-0.012-0.019-0.02-0.043-0.02-0.082z" inkscape:connector-curvature="0"/>
          </g>
        </g>
      </g>
      <g id="g52">
        <g id="g54">
          <g id="g60">
            <path id="path68" style="fill-rule:evenodd;fill:url(#radialGradient62)" d="m15.258 22.827c0.094 0.141 0.187 0.27 0.281 0.395l-0.441-1.094-0.094-0.582 0.605 0.164c0.188 0.078 0.489 0.293 0.907 0.653-0.11-0.157-0.309-0.375-0.606-0.653-0.183-0.187-0.402-0.312-0.648-0.375l-0.328-0.019-0.118-1.282 0.235 0.024c0.183 0.047 0.363 0.109 0.535 0.183 0.277 0.125 0.496 0.25 0.652 0.375l0.067 0.649 0.211 0.465-0.024-0.442c0-0.183 0.024-0.339 0.07-0.464l0.325 0.21 0.418 0.348c-0.168-0.355-0.571-0.703-1.207-1.047-0.403-0.215-0.746-0.371-1.024-0.465l-0.281-0.07 0.023-0.648c0-0.313 0.102-0.739 0.305-1.282h0.348c0.293 0.016 0.613 0.071 0.953 0.161 0.527 0.14 0.867 0.289 1.023 0.445l-0.023 0.582 0.117 0.695 0.07-0.558c0.047-0.278 0.149-0.457 0.301-0.536l0.117 0.118 0.883 0.722c-0.371-0.683-0.906-1.211-1.605-1.582-0.45-0.234-0.93-0.386-1.442-0.465l-0.629-0.023 0.118-0.211c0.109-0.168 0.261-0.363 0.464-0.582 0.313-0.355 0.84-0.598 1.582-0.719l-0.718-0.023c-0.297 0-0.59 0.086-0.887 0.254-0.184 0.109-0.387 0.351-0.602 0.722l-0.281 0.536c-0.605 0.355-1.07 0.82-1.394 1.394-0.188 0.371-0.328 0.777-0.418 1.211l-0.071 0.559 0.164-0.676c0.063-0.25 0.168-0.457 0.325-0.629l0.046 0.512c0.016 0.172 0.016 0.32 0 0.445l-0.023 0.137 0.117-0.16c0.063-0.157 0.098-0.321 0.114-0.489 0.019-0.281-0.024-0.515-0.114-0.699l0.254-0.324c0.156-0.203 0.449-0.485 0.883-0.84l-0.137 0.418c-0.062 0.172-0.109 0.488-0.14 0.953l-0.024 0.629c-0.527 0.355-0.867 0.723-1.023 1.094-0.094 0.234-0.145 0.441-0.164 0.629v0.23l0.07-0.394c0.031-0.153 0.102-0.293 0.211-0.418l0.07 0.281c0.047 0.105 0.078 0.308 0.09 0.601v-0.648l-0.043-0.395 0.371-0.398c0.168-0.184 0.324-0.301 0.465-0.348 0 0.157 0.023 0.356 0.07 0.606l0.141 0.648c-0.422 0.235-0.684 0.52-0.793 0.864-0.062 0.214-0.102 0.402-0.117 0.558v0.16l0.047-0.324c0.047-0.246 0.148-0.465 0.304-0.652 0.231-0.293 0.434-0.426 0.602-0.395l0.141 0.676c0.031 0.125 0.14 0.324 0.324 0.605z" inkscape:connector-curvature="0"/>
          </g>
        </g>
      </g>
      <path id="path70" style="fill-rule:evenodd;fill:#6f9c32" d="m17.422 20.964c0.371-0.605 0.691-1.039 0.953-1.301 0.449-0.406 0.801-0.668 1.047-0.793-0.231-0.589-0.434-0.968-0.602-1.14-0.156-0.168-2.179 0.211-6.074 1.14l0.094 1.629 0.277-0.093c0.266-0.016 0.606 0.062 1.024 0.234 0.402 0.168 0.918 0.223 1.535 0.16 0.344-0.031 0.715-0.074 1.117-0.137 0.234-0.015 0.367-0.015 0.395 0 0.062 0.047 0.054 0.176-0.024 0.395l-0.207 0.723 0.465-0.817z" inkscape:connector-curvature="0"/>
      <path id="path72" style="fill-rule:evenodd;fill:#90cc3f" d="m23.984 18.894c-0.265-0.852-0.929-1.457-2-1.813-1.644-0.574-3.546-0.957-5.703-1.14l1.352 0.605c0.961 0.664 1.613 1.625 1.953 2.883 0.281 1.039 0.414 1.93 0.398 2.676 0 0.574 0.008 0.879 0.02 0.906 0.094 0.109 0.219 0.188 0.375 0.234 0.078 0.032 0.355 0.079 0.836 0.141 0.375 0.063 0.652 0.184 0.84 0.371 0.109 0.109 0.222 0.324 0.347 0.652 0.125 0.356 0.274 0.559 0.442 0.606-0.121-0.188-0.215-0.391-0.278-0.606-0.14-0.464-0.078-0.808 0.188-1.023 0.324-0.266 0.609-0.652 0.859-1.164 0.278-0.512 0.426-0.992 0.442-1.441 0.058-0.887 0.039-1.516-0.071-1.887z" inkscape:connector-curvature="0"/>
      <path id="path74" style="fill-rule:evenodd;fill:#6a9431" d="m24.121 18.894c-0.262-0.852-0.922-1.457-1.976-1.813-1.645-0.574-3.551-0.957-5.723-1.14l1.348 0.605c0.964 0.664 1.617 1.625 1.957 2.883 0.277 1.039 0.418 1.93 0.418 2.676-0.016 0.574-0.016 0.879 0 0.906 0.093 0.125 0.214 0.203 0.371 0.234 0.093 0.032 0.382 0.079 0.863 0.141 0.371 0.063 0.633 0.168 0.789 0.324 0.109 0.11 0.227 0.313 0.352 0.606 0.121 0.355 0.23 0.59 0.324 0.699-0.094-0.188-0.164-0.391-0.211-0.606-0.094-0.464-0.008-0.808 0.258-1.023 0.324-0.266 0.617-0.652 0.882-1.164 0.262-0.512 0.411-0.992 0.442-1.441 0.062-0.872 0.031-1.497-0.094-1.887z" inkscape:connector-curvature="0"/>
      <path id="path76" style="fill-rule:evenodd;fill:#658c2d" d="m22.891 23.386c0.277-0.219 0.535-0.535 0.765-0.953 0.25-0.418 0.414-0.84 0.489-1.258-0.047-0.125-0.122-0.273-0.231-0.441-0.219-0.328-0.637-0.434-1.258-0.328-0.636 0.125-0.82 0.375-0.558 0.746 0.25 0.371 0.359 0.73 0.328 1.07-0.047 0.328-0.227 0.559-0.535 0.699-0.203 0.11-0.282 0.285-0.235 0.535 0.266 0.063 0.457 0.164 0.582 0.301 0.078 0.109 0.172 0.297 0.282 0.559 0.121 0.355 0.23 0.59 0.324 0.699-0.094-0.188-0.164-0.387-0.211-0.606-0.09-0.464-0.008-0.808 0.258-1.023z" inkscape:connector-curvature="0"/>
      <path id="path78" style="fill-rule:evenodd;fill:#8cc63f" d="m11.934 21.757c0.074 0.109 0.128 0.109 0.16 0 0.078-0.203 0.383-1.086 0.91-2.652 0.293-0.84 0.883-1.621 1.766-2.352 0.433-0.355 0.847-0.629 1.234-0.812-0.266 0.078-0.582 0.215-0.953 0.418-0.746 0.418-1.36 0.961-1.84 1.629-0.574 0.804-0.984 1.55-1.231 2.234-0.234 0.695-0.25 1.207-0.046 1.535z" inkscape:connector-curvature="0"/>
      <path id="path80" style="fill-rule:evenodd;fill:#86c236" d="m24.309 20.71c0.015-0.621-0.039-1.14-0.164-1.558-0.247-0.84-0.75-1.567-1.512-2.188-0.867-0.699-1.883-1.094-3.047-1.187-1.227-0.121-2.242-0.121-3.047 0l-0.84 0.211 0.375-0.047c0.324 0 0.656 0.031 1 0.093 0.836 0.168 1.535 0.528 2.094 1.071 0.621 0.617 1.016 1.426 1.187 2.418 0.231 1.535 0.457 2.265 0.672 2.187 0.047-0.015 0.172-0.062 0.375-0.14 0.215-0.079 0.364-0.102 0.442-0.071 0.015 0 0.109 0.102 0.277 0.305 0.156 0.184 0.344 0.285 0.559 0.301 0.433 0.062 0.738 0.148 0.91 0.258 0.168 0.089 0.426 0.136 0.765 0.136 0.387-0.015 0.606-0.136 0.653-0.371 0.047-0.308 0.039-0.488-0.024-0.535-0.046-0.031-0.125 0-0.23 0.094-0.266 0.199-0.422 0.191-0.469-0.024-0.015-0.062-0.008-0.379 0.024-0.953z" inkscape:connector-curvature="0"/>
      <path id="path82" style="fill-rule:evenodd;fill:#60872c" d="m24.473 20.71c0-0.636-0.063-1.156-0.188-1.558-0.246-0.84-0.75-1.567-1.512-2.188-0.851-0.699-1.859-1.094-3.023-1.187-1.969-0.184-3.273-0.118-3.91 0.211l0.394-0.047c0.328 0 0.661 0.031 1 0.093 0.825 0.168 1.516 0.528 2.071 1.071 0.621 0.617 1.019 1.426 1.187 2.418 0.141 0.867 0.317 1.351 0.535 1.441 0.125 0.063 0.313 0.086 0.559 0.07 0.48 0.297 0.73 0.446 0.746 0.446 0.063 0.015 0.207 0.113 0.441 0.301 0.25 0.183 0.481 0.285 0.7 0.3 0.199 0.032 0.285 0.063 0.254 0.094-0.063 0.078-0.063 0.141 0 0.188 0.343 0.222 0.671 0.039 0.976-0.559-0.137 0.051-0.223 0.004-0.254-0.141l0.024-0.953zm0.23 1.094c0.055-0.027 0.117-0.066 0.188-0.117 0.117-0.09 0.16 0.035 0.129 0.371 0.101-0.856 0.14-1.313 0.125-1.371 0-0.031-0.051 0.113-0.161 0.441-0.089 0.262-0.183 0.488-0.281 0.676z" inkscape:connector-curvature="0"/>
      <path id="path84" style="fill-rule:evenodd;fill:#537526" d="m24.449 21.663 0.024-0.953c0-0.636-0.063-1.156-0.188-1.558-0.246-0.84-0.75-1.567-1.512-2.188-0.851-0.699-1.859-1.094-3.023-1.187l-0.258-0.024c1.227 0.188 2.219 0.629 2.981 1.328 0.621 0.559 0.945 1.118 0.976 1.676 0.063 1.254-0.054 2.203-0.351 2.836v0.07c0.015 0.063 0.101 0.118 0.257 0.164 0.125 0.047 0.293 0.118 0.512 0.211 0.203 0.078 0.387 0.082 0.559 0.02 0.215-0.059 0.285-0.121 0.211-0.184-0.047-0.031-0.102-0.07-0.164-0.117l-0.024-0.094z" inkscape:connector-curvature="0"/>
      <g id="g86">
        <g id="g102" mask="url(#mask94)">
          <g id="g114">
            <g id="g116" clip-path="url(#clipPath106)">
              <g id="g118" transform="translate(0 -.47337)">
                <g id="g122">
                  <g id="g124" clip-path="url(#clipPath110)">
                    <g id="g126">
                      <path id="path128" style="fill-rule:evenodd;fill:#000000" d="m22.922 21.52c0.047 0.292 0.148 0.535 0.301 0.718-0.106-0.324-0.161-0.613-0.161-0.859 0-0.25 0.024-0.41 0.071-0.488 0.058-0.047 0.176 0.031 0.347 0.23 0.172 0.203 0.293 0.422 0.372 0.652-0.047-0.23-0.125-0.464-0.231-0.699-0.109-0.23-0.266-0.371-0.465-0.418l0.067-1.187c0.218 0.047 0.414 0.195 0.582 0.445 0.172 0.262 0.304 0.527 0.398 0.789-0.156-0.59-0.312-1-0.469-1.234-0.168-0.231-0.339-0.332-0.511-0.301l-0.254-0.906-0.071-0.188c-0.046-0.094 0.079-0.023 0.372 0.211 0.21 0.156 0.378 0.309 0.511 0.465-0.332-0.453-0.574-0.73-0.719-0.84-0.187-0.121-0.312-0.183-0.374-0.183-0.2-0.329-0.547-0.614-1.047-0.864-0.481-0.261-0.985-0.441-1.512-0.535 0.699 0.188 1.258 0.484 1.676 0.887l0.652 0.605c-0.434 0.016-0.785 0.129-1.047 0.348-0.172 0.141-0.316 0.309-0.441 0.512l-0.117 0.254 0.21-0.231c0.168-0.172 0.333-0.289 0.489-0.348 0.246-0.125 0.59-0.21 1.023-0.257 0.078 0.125 0.16 0.316 0.254 0.582l0.141 0.511c-0.543 0.079-0.93 0.227-1.164 0.442-0.246 0.234-0.434 0.465-0.559 0.699 0.313-0.371 0.652-0.613 1.024-0.723 0.375-0.109 0.605-0.152 0.699-0.14 0.015 0.375 0.015 0.66 0 0.863v0.277c-0.356 0-0.637 0.071-0.836 0.211l-0.445 0.348 0.257-0.117c0.219-0.09 0.395-0.145 0.535-0.16l0.442-0.047c-0.047 0.172-0.047 0.394 0 0.676z" inkscape:connector-curvature="0"/>
                    </g>
                  </g>
                </g>
              </g>
            </g>
          </g>
        </g>
      </g>
      <path id="path130" style="fill-rule:evenodd;fill:#94d142" d="m13.375 23.292c-0.187 0.094-0.383 0.039-0.582-0.164-0.078-0.078-0.125-0.078-0.141 0-0.015 0.078 0.047 0.203 0.188 0.375 0.215 0.278 0.613 0.379 1.187 0.301 0.106-0.031 0.254-0.086 0.442-0.164 0.156-0.078 0.332-0.121 0.535-0.137 0.48-0.047 0.945-0.195 1.394-0.445 0.391-0.231 0.606-0.465 0.653-0.695-0.031 0.015-0.031-0.071 0-0.258 0.031-0.231 0.008-0.371-0.071-0.418-0.062-0.047-0.156 0.039-0.277 0.254-0.141 0.25-0.25 0.383-0.328 0.398-0.109 0.016-0.195-0.015-0.254-0.094-0.062-0.109-0.109-0.187-0.141-0.23-0.046-0.094-0.156-0.102-0.324-0.024-0.156 0.059-0.289 0.176-0.394 0.348-0.032 0.031-0.094 0.149-0.188 0.348-0.047 0.094-0.125 0.172-0.234 0.234-0.094 0.078-0.231 0.125-0.418 0.141h-0.254l-0.117-0.047c-0.016-0.004-0.242 0.09-0.676 0.277z" inkscape:connector-curvature="0"/>
      <path id="path132" style="fill-rule:evenodd;fill:#39521a" d="m23.496 16.101c-1.226-0.617-2.305-0.805-3.234-0.555-0.992 0.262-1.442 0.41-1.352 0.442 0.078 0.031 0.528 0.046 1.352 0.046 0.726 0.016 1.402 0.184 2.023 0.512 0.309 0.153 0.629 0.231 0.953 0.231 0.434 0 0.715 0.015 0.836 0.047 0.406 0.109 0.723 0.21 0.957 0.304-0.418-0.375-0.929-0.715-1.535-1.027z" inkscape:connector-curvature="0"/>
      <path id="path134" style="fill-rule:evenodd;fill:#3c571c" d="m38.156 14.495c0.293 0.575 0.813 0.934 1.559 1.071 0.387 0.062 0.734 0.07 1.047 0.023-0.157-0.015-0.313-0.039-0.465-0.07-0.313-0.09-0.473-0.223-0.488-0.395-0.016-0.14 0.007-0.34 0.066-0.605 0.051-0.293-0.02-0.664-0.207-1.117-0.234-0.618-0.629-1.184-1.188-1.696-0.617-0.574-1.277-0.918-1.976-1.023 0.172 0.402 0.363 0.859 0.582 1.371 0.434 1.039 0.789 1.852 1.07 2.441z" inkscape:connector-curvature="0"/>
      <path id="path136" style="fill-rule:evenodd;fill:#446120" d="m39.227 13.218c0.371 0.215 0.675 0.465 0.906 0.746-0.047-0.469-0.215-0.965-0.512-1.492-0.559-1.07-1.414-1.805-2.559-2.207-0.992-0.344-2.304-0.465-3.933-0.375-1.703 0.109-2.184 0.25-1.441 0.418 0.109 0.016 0.882 0.508 2.324 1.469 1.523 0.898 2.586 1.246 3.187 1.047 0.637-0.204 1.313-0.071 2.028 0.394z" inkscape:connector-curvature="0"/>
      <path id="path138" style="fill-rule:evenodd;fill:#6e9c33" d="m25.66 12.101c0.824 0.031 1.383 0.031 1.676 0 0.621-0.063 1.164-0.25 1.629-0.559 3.492-0.48 5.148-0.828 4.98-1.047-0.203-0.281-0.543-0.488-1.023-0.629-0.82-0.246-2.102-0.339-3.84-0.277-0.883 0.047-1.699 0.223-2.441 0.535-1.399 0.575-2.594 1.496-3.586 2.766l-0.254 0.351 1.023-0.582c0.774-0.386 1.387-0.574 1.836-0.558z" inkscape:connector-curvature="0"/>
      <path id="path140" style="fill-rule:evenodd;fill:#6b9631" d="m22.359 17.128 1.301-2.492c1.07-1.797 2.086-3.039 3.047-3.719 0.59-0.422 1.621-0.761 3.098-1.023 0.726-0.125 1.402-0.211 2.023-0.258-0.73-0.125-1.598-0.156-2.605-0.094-1.985 0.141-3.629 0.707-4.934 1.699-1.07 0.821-1.715 2.047-1.93 3.676v2.211z" inkscape:connector-curvature="0"/>
      <path id="path142" style="fill-rule:evenodd;fill:#6b9630" d="m34.641 23.128 0.421-0.277c0.094 0 0.309-0.274 0.649-0.817 0.156-0.187 0.344-0.109 0.559 0.231l0.117-0.231c0.093-0.14 0.211-0.156 0.347-0.046 0.235 0.156 0.469 0.347 0.7 0.582-0.125-0.313-0.246-0.637-0.372-0.977-0.234-0.668-0.343-1.086-0.328-1.258 0.032-0.203-0.449-0.332-1.441-0.394-1.008-0.063-1.605 0.023-1.789 0.254-0.156 0.203-0.313 0.527-0.465 0.98l-0.211 0.606c0.293 0.105 0.574 0.339 0.836 0.695 0.141 0.187 0.297 0.426 0.465 0.723 0.109 0.109 0.281 0.085 0.512-0.071z" inkscape:connector-curvature="0"/>
      <path id="path144" style="fill-rule:evenodd;fill:#5c822a" d="m27.035 10.73c-0.25 0.027-0.535 0.176-0.859 0.441-0.668 0.496-1.219 1.293-1.653 2.395-0.871 2.203-1.335 3.39-1.398 3.558-0.293 0.903-0.27 1.344 0.07 1.328 0.36-0.031 0.614 0.071 0.77 0.301l0.347 0.84c0.387 0.402 0.926 0.199 1.606-0.605 0.402-0.465 0.777-3.219 1.117-8.258z" inkscape:connector-curvature="0"/>
      <path id="path146" style="fill-rule:evenodd;fill:#89bf3f" d="m26.176 20.523 0.695 1.117c0.731 0.777 1.754 1.258 3.07 1.445 1.618 0.215 3.02 0.074 4.215-0.422 1.223-0.511 2.063-1.332 2.512-2.464 0.512-1.348 0.387-2.899-0.371-4.653-0.84-1.941-2.102-2.93-3.793-2.98-1.848-0.059-3.516 0.84-5.004 2.699-1.504 1.863-1.945 3.613-1.324 5.258z" inkscape:connector-curvature="0"/>
      <path id="path148" style="fill-rule:evenodd;fill:#7bab38" d="m35.734 20.034 0.164-1.582c0.047-1.242-0.054-2.32-0.3-3.234-0.266-0.945-0.786-1.48-1.559-1.605-1.289-0.016-2.5-0.086-3.633-0.211-1.41-0.168-2.301 0.211-2.672 1.14-0.109 1.024-0.211 1.614-0.304 1.77-0.387 0.605-0.535 1.094-0.442 1.465 0.153 0.683 1.102 0.789 2.84 0.324 1.703-0.465 3.203-0.285 4.488 0.535 0.653 0.422 1.125 0.887 1.418 1.398z" inkscape:connector-curvature="0"/>
      <path id="path150" style="fill-rule:evenodd;fill:#689131" d="m29.293 15.706-3.422 1.817c0.031 0.402 0.063 0.812 0.094 1.234 0.062 0.852 0.117 1.317 0.164 1.395 0.074 0.14 0.137 0.347 0.183 0.629l1.141-0.188c0.852-0.219 1.527-0.551 2.024-1 0.324-0.309 0.488-0.566 0.488-0.769l0.582-1.489c0.527-1.054 1.117-1.738 1.769-2.047 0.309-0.14 0.625 0 0.954 0.418 0.156 0.219 0.277 0.45 0.371 0.7l0.023-0.93c-0.031-0.668-0.187-1.094-0.465-1.281-0.261-0.172-1.566 0.332-3.906 1.511z" inkscape:connector-curvature="0"/>
      <path id="path152" style="fill-rule:evenodd;fill:#a5e64c" d="m34.574 22.152c-0.453-0.016-0.722-0.086-0.816-0.211-0.094-0.121-0.156-0.246-0.188-0.371v-0.164l0.516-0.184c0.371-0.219 0.648-0.606 0.836-1.164 0.203-0.559 0.187-1.164-0.047-1.813-0.109-0.328-0.242-0.597-0.395-0.816 0.141 0.789 0.133 1.535-0.023 2.234-0.125 0.559-0.293 0.938-0.512 1.137-0.14 0.141-0.304 0.266-0.488 0.375l-0.234 0.094c-0.649 0.047-1.262 0.027-1.836-0.047-0.36-0.047-0.762-0.211-1.211-0.488l-0.559-0.418 0.348 0.371c0.297 0.262 0.566 0.457 0.816 0.582 0.403 0.199 1.047 0.285 1.93 0.254-0.152 0.156-0.371 0.304-0.649 0.441l-0.417 0.235c-0.95-0.016-1.676-0.243-2.188-0.676l-1.117-1.024 0.211 0.375c0.199 0.293 0.441 0.551 0.719 0.766 0.453 0.355 1.171 0.621 2.164 0.793-0.34 0.152-0.622 0.238-0.836 0.254-0.266 0.031-0.653-0.055-1.164-0.254-0.622-0.266-1.039-0.606-1.258-1.027-0.153-0.309-0.293-0.602-0.418-0.883-0.047-0.09-0.07-0.106-0.07-0.047 0 0.156 0.109 0.457 0.328 0.91 0.277 0.543 0.574 0.891 0.882 1.047 0.481 0.215 0.922 0.355 1.325 0.418-0.602 0.078-1.008 0.086-1.207 0.023l-0.305-0.07 0.605 0.164c0.465 0.106 0.829 0.137 1.094 0.09l0.231-0.024 0.257 0.071c0.215 0.047 0.395 0.07 0.536 0.07l0.488-0.023-1.07-0.231 0.582-0.258 0.324-0.207v0.09c0.078 0.078 0.281 0.164 0.605 0.258 0.528 0.152 1.078 0.137 1.653-0.047-0.731 0.063-1.18 0.051-1.352-0.023l-0.652-0.465 0.605-0.375c0.141-0.074 0.258-0.176 0.352-0.301l0.207 0.254c0.187 0.187 0.406 0.305 0.652 0.352 0.402 0.078 0.871 0.054 1.399-0.071-0.204 0.016-0.422 0.024-0.653 0.024z" inkscape:connector-curvature="0"/>
      <g id="g154">
        <g id="g156">
          <g id="g162">
            <path id="path170" style="fill-rule:evenodd;fill:url(#radialGradient164)" d="m33.105 14.265c0.59-0.281 0.961-0.914 1.118-1.91 0.109-0.742 0.66-1.063 1.652-0.953-0.121-0.121-0.34-0.27-0.648-0.442-0.637-0.355-1.422-0.644-2.352-0.859-0.84-0.172-1.77-0.235-2.793-0.188-2.047 0.078-3.527 0.653-4.441 1.723-1.211 1.379-1.739 3-1.586 4.863 0.062 0.899 0.383 2.086 0.957 3.559 0.074 0.187 0.14 0.34 0.195 0.453-0.008 0.012-0.019 0.023-0.035 0.035-0.035 0.028-0.067 0.051-0.094 0.07 0.047 0.008 0.09 0.016 0.141 0.024 0.023 0.004 0.047 0.008 0.07 0.012 0.109 0.168 0.188 0.179 0.234 0.035v-0.012c0.305 0.016 0.618-0.023 0.93-0.129 0.184-0.062 0.719-0.305 1.606-0.722 0.742-0.34 1.273-0.727 1.582-1.165 0.171-0.261 0.339-0.64 0.511-1.136 0.282-0.606 0.668-1.196 1.164-1.77 0.575-0.695 1.172-1.195 1.789-1.488zm-8.187 6.234c-0.016-0.203-0.063-0.3-0.141-0.3-0.089 0-0.3-0.118-0.625-0.352-0.25-0.168-0.343-0.18-0.281-0.023 0.16 0.363 0.516 0.613 1.07 0.757-0.011-0.023-0.019-0.05-0.023-0.082z" inkscape:connector-curvature="0"/>
          </g>
        </g>
      </g>
      <g id="g172">
        <g id="g174">
          <g id="g180">
            <path id="path188" style="fill-rule:evenodd;fill:url(#radialGradient182)" d="m28.711 17.429c0.031 0.141 0.086 0.277 0.16 0.418l0.094 0.184-0.024-0.579c0-0.25 0.032-0.468 0.094-0.652l0.442 0.301c0.203 0.156 0.386 0.32 0.558 0.488-0.23-0.496-0.773-0.984-1.629-1.465-0.543-0.293-0.992-0.504-1.347-0.629l-0.371-0.093 0.019-0.907c0-0.402 0.133-0.984 0.398-1.746h0.465c0.403 0.032 0.828 0.11 1.278 0.235 0.699 0.187 1.156 0.386 1.375 0.605l-0.024 0.766 0.164 0.98 0.094-0.769c0.059-0.371 0.184-0.614 0.371-0.719l0.164 0.16c0.106 0.109 0.512 0.434 1.207 0.977-0.125-0.231-0.308-0.496-0.558-0.789-0.481-0.59-1.016-1.047-1.606-1.371-0.586-0.329-1.223-0.536-1.906-0.629l-0.859-0.047 0.136-0.282c0.156-0.246 0.367-0.519 0.629-0.812 0.434-0.484 1.141-0.809 2.117-0.98l-0.953-0.02c-0.387 0-0.793 0.113-1.211 0.348-0.246 0.14-0.511 0.464-0.789 0.976l-0.351 0.723c-0.821 0.496-1.45 1.14-1.883 1.93-0.266 0.496-0.457 1.046-0.582 1.652l-0.094 0.766 0.234-0.93c0.079-0.34 0.223-0.629 0.442-0.86l0.07 0.7c0.031 0.23 0.039 0.433 0.024 0.601l-0.047 0.211 0.14-0.234c0.075-0.199 0.121-0.426 0.137-0.672 0.031-0.391-0.008-0.707-0.117-0.953l0.305-0.418c0.214-0.281 0.621-0.668 1.211-1.164l-0.211 0.582c-0.079 0.246-0.133 0.683-0.165 1.301l-0.046 0.863c-0.711 0.48-1.164 0.976-1.348 1.488-0.125 0.324-0.203 0.613-0.234 0.86v0.304l0.093-0.515c0.047-0.215 0.141-0.411 0.282-0.582l0.113 0.398 0.094 0.789-0.047-1.418 0.488-0.535c0.234-0.266 0.434-0.418 0.605-0.465l0.301 1.699c-0.554 0.309-0.914 0.703-1.07 1.184-0.09 0.297-0.145 0.551-0.16 0.769v0.231l0.07-0.442c0.078-0.339 0.207-0.644 0.395-0.906 0.324-0.406 0.597-0.59 0.816-0.558l0.207 0.953c0.047 0.172 0.195 0.449 0.441 0.836 0.126 0.203 0.25 0.383 0.376 0.535l-0.258-0.582c-0.184-0.434-0.301-0.742-0.348-0.93l-0.141-0.812 0.282 0.047c0.23 0.062 0.418 0.121 0.554 0.183 0.235 0.109 0.629 0.406 1.188 0.883-0.125-0.199-0.395-0.496-0.813-0.883-0.25-0.246-0.535-0.41-0.863-0.488l-0.418-0.047-0.183-1.77 0.324 0.051c0.261 0.059 0.504 0.145 0.722 0.254 0.371 0.172 0.664 0.332 0.883 0.488 0.016 0.407 0.047 0.715 0.094 0.934z" inkscape:connector-curvature="0"/>
          </g>
        </g>
      </g>
      <path id="path190" style="fill-rule:evenodd;fill:#5b8029" d="m32.852 14.148c-0.293-0.821-0.559-1.348-0.79-1.582-0.218-0.246-2.925 0.281-8.121 1.582l0.118 2.234 0.371-0.141c0.359-0.031 0.808 0.071 1.351 0.305 0.559 0.231 1.246 0.309 2.071 0.231 0.449-0.032 0.945-0.102 1.488-0.211 0.324-0.012 0.504-0.012 0.535 0 0.078 0.062 0.063 0.25-0.047 0.558l-0.258 1.004 0.629-1.14c0.481-0.825 0.906-1.414 1.278-1.77 0.589-0.574 1.046-0.93 1.375-1.07z" inkscape:connector-curvature="0"/>
      <path id="path192" style="fill-rule:evenodd;fill:#90cc3f" d="m38.945 14.148c-0.34-1.164-1.222-1.992-2.648-2.489-1.383-0.48-3.067-0.882-5.051-1.21l-2.582-0.348 1.789 0.836c1.305 0.898 2.18 2.219 2.629 3.957 0.375 1.426 0.551 2.652 0.535 3.676-0.015 0.773-0.008 1.183 0.024 1.23 0.125 0.156 0.289 0.266 0.488 0.328 0.094 0.031 0.473 0.102 1.141 0.207 0.496 0.078 0.859 0.242 1.093 0.489 0.157 0.171 0.309 0.472 0.465 0.91 0.188 0.465 0.387 0.742 0.606 0.836l-0.372-0.86c-0.187-0.621-0.109-1.078 0.231-1.375 0.434-0.371 0.832-0.906 1.187-1.605 0.356-0.711 0.551-1.379 0.582-2 0.094-1.176 0.055-2.039-0.117-2.582z" inkscape:connector-curvature="0"/>
      <path id="path194" style="fill-rule:evenodd;fill:#6a9431" d="m39.156 14.148c-0.355-1.164-1.242-1.992-2.652-2.489-1.379-0.48-3.063-0.882-5.051-1.21l-2.582-0.348 1.793 0.836c1.285 0.898 2.156 2.219 2.606 3.957 0.371 1.426 0.558 2.652 0.558 3.676-0.016 0.789-0.008 1.199 0.024 1.23 0.121 0.156 0.285 0.266 0.488 0.328 0.094 0.031 0.472 0.102 1.14 0.207 0.497 0.078 0.852 0.219 1.067 0.422 0.125 0.137 0.273 0.418 0.445 0.836 0.168 0.481 0.317 0.805 0.442 0.977l-0.282-0.86c-0.121-0.621-0.007-1.078 0.352-1.375 0.434-0.355 0.82-0.89 1.164-1.605 0.355-0.711 0.559-1.379 0.602-2 0.066-1.227 0.027-2.086-0.114-2.582z" inkscape:connector-curvature="0"/>
      <path id="path196" style="fill-rule:evenodd;fill:#658c2d" d="m38.527 19.011c0.328-0.574 0.551-1.148 0.676-1.723l-0.328-0.605c-0.293-0.449-0.859-0.594-1.695-0.442-0.84 0.172-1.086 0.512-0.746 1.024 0.339 0.512 0.48 0.992 0.418 1.441-0.063 0.453-0.286 0.778-0.676 0.981-0.293 0.121-0.41 0.363-0.348 0.719 0.356 0.078 0.621 0.218 0.789 0.418 0.11 0.14 0.235 0.398 0.375 0.769 0.168 0.481 0.317 0.805 0.442 0.977l-0.282-0.86c-0.121-0.621-0.007-1.078 0.352-1.375 0.355-0.308 0.699-0.75 1.023-1.324z" inkscape:connector-curvature="0"/>
      <path id="path198" style="fill-rule:evenodd;fill:#8cc63f" d="m22.871 18.105c0.031 0.047 0.063 0.109 0.094 0.183 0.015 0.016 0.051-0.062 0.113-0.23 0.094-0.266 0.496-1.469 1.211-3.609 0.387-1.149 1.172-2.215 2.352-3.211 0.589-0.493 1.14-0.875 1.652-1.141-0.359 0.109-0.785 0.305-1.281 0.586-0.992 0.574-1.809 1.308-2.442 2.207-0.777 1.117-1.328 2.141-1.652 3.074-0.313 0.961-0.328 1.672-0.047 2.141z" inkscape:connector-curvature="0"/>
      <path id="path200" style="fill-rule:evenodd;fill:#86c236" d="m39.156 14.523c-0.328-1.149-1-2.153-2.023-3.004-1.133-0.961-2.485-1.512-4.051-1.653-1.644-0.136-3-0.136-4.07 0l-1.141 0.282 0.512-0.024c0.433-0.015 0.883 0.024 1.351 0.117 1.102 0.231 2.032 0.723 2.789 1.465 0.84 0.84 1.368 1.942 1.582 3.305 0.329 2.094 0.629 3.102 0.911 3.023 0.062-0.031 0.23-0.109 0.511-0.23 0.262-0.109 0.45-0.141 0.559-0.094 0.047 0.016 0.18 0.153 0.394 0.418 0.204 0.262 0.45 0.41 0.747 0.442 0.605 0.078 1.007 0.187 1.207 0.324 0.218 0.14 0.558 0.211 1.027 0.211 0.527-0.016 0.812-0.184 0.859-0.512 0.063-0.418 0.055-0.66-0.023-0.723-0.063-0.043-0.172-0.007-0.324 0.118-0.125 0.109-0.25 0.164-0.375 0.164-0.121 0-0.2-0.063-0.231-0.188-0.015-0.09-0.008-0.527 0.024-1.301 0.011-0.871-0.063-1.586-0.235-2.14z" inkscape:connector-curvature="0"/>
      <path id="path202" style="fill-rule:evenodd;fill:#60872c" d="m40.18 17.988c0.14-0.114 0.191 0.039 0.164 0.453 0.121-1.157 0.183-1.758 0.183-1.805s-0.078 0.156-0.23 0.605c-0.117 0.348-0.238 0.645-0.363 0.887-0.043 0.012-0.082 0.02-0.125 0.02-0.125 0-0.204-0.059-0.235-0.184-0.015-0.094-0.008-0.527 0.024-1.305 0.015-0.867-0.063-1.582-0.231-2.14-0.344-1.149-1.019-2.149-2.027-3-1.129-0.961-2.481-1.512-4.047-1.653-1.645-0.14-3-0.14-4.07 0l-1.141 0.282 0.512-0.024c0.418-0.015 0.867 0.024 1.347 0.117 1.102 0.231 2.024 0.719 2.77 1.465 0.84 0.836 1.367 1.938 1.582 3.305 0.187 1.191 0.43 1.859 0.723 2 0.152 0.078 0.402 0.109 0.746 0.094 0.511 0.34 0.836 0.535 0.976 0.582 0.016 0 0.215 0.14 0.606 0.418 0.34 0.261 0.656 0.41 0.953 0.441 0.262 0.031 0.371 0.078 0.324 0.141-0.078 0.078-0.078 0.148 0 0.207 0.465 0.312 0.902 0.055 1.317-0.766 0.078-0.023 0.16-0.07 0.242-0.14z" inkscape:connector-curvature="0"/>
      <path id="path204" style="fill-rule:evenodd;fill:#537526" d="m39.621 18.058-0.047-0.094c-0.015-0.094-0.008-0.527 0.024-1.301 0.015-0.871-0.063-1.586-0.235-2.14-0.34-1.149-1.015-2.153-2.023-3.004-1.133-0.961-2.481-1.512-4.047-1.653l-0.328-0.019c1.629 0.277 2.957 0.883 3.98 1.812 0.821 0.778 1.258 1.543 1.301 2.305 0.051 1.07-0.016 2.039-0.184 2.906l-0.281 0.981c-0.027 0.031-0.039 0.062-0.019 0.09 0.027 0.093 0.144 0.179 0.347 0.258 0.172 0.046 0.403 0.136 0.7 0.277 0.277 0.094 0.535 0.101 0.765 0.023 0.266-0.078 0.344-0.164 0.235-0.254-0.047-0.062-0.11-0.125-0.188-0.187z" inkscape:connector-curvature="0"/>
      <g id="g206">
        <g id="g222" mask="url(#mask214)">
          <g id="g234">
            <g id="g236" clip-path="url(#clipPath226)">
              <g id="g238" transform="translate(0 -.47337)">
                <g id="g242">
                  <g id="g244" clip-path="url(#clipPath230)">
                    <g id="g246">
                      <path id="path248" style="fill-rule:evenodd;fill:#000000" d="m38.645 14.848c-0.219-0.313-0.446-0.45-0.676-0.418l-0.442-1.512c-0.062-0.125 0.106-0.023 0.512 0.301 0.297 0.226 0.535 0.461 0.719 0.699-0.473-0.672-0.817-1.082-1.024-1.234-0.23-0.172-0.386-0.258-0.464-0.258-0.293-0.434-0.766-0.821-1.418-1.16-0.653-0.36-1.321-0.606-2-0.746 0.914 0.265 1.66 0.668 2.23 1.21l0.84 0.836c-0.559 0.032-1.024 0.196-1.399 0.489-0.23 0.187-0.418 0.418-0.554 0.699l-0.164 0.348 0.277-0.325c0.219-0.234 0.438-0.394 0.652-0.488 0.325-0.156 0.778-0.273 1.352-0.351 0.105 0.187 0.223 0.468 0.348 0.839l0.183 0.676c-0.726 0.106-1.246 0.317-1.558 0.625-0.2 0.188-0.387 0.406-0.555 0.652l-0.188 0.305c0.403-0.527 0.86-0.863 1.372-1.004 0.496-0.152 0.816-0.215 0.953-0.183 0.015 0.496 0.015 0.882 0 1.164l-0.024 0.394c-0.48 0-0.851 0.094-1.113 0.278l-0.606 0.488 0.372-0.16c0.281-0.125 0.511-0.203 0.699-0.235 0.293-0.047 0.488-0.062 0.582-0.047-0.063 0.219-0.063 0.528 0 0.93 0.078 0.406 0.215 0.731 0.418 0.981-0.141-0.453-0.211-0.848-0.211-1.188 0-0.328 0.023-0.551 0.07-0.676 0.094-0.062 0.258 0.047 0.488 0.328 0.235 0.278 0.387 0.571 0.465 0.883-0.047-0.328-0.144-0.644-0.301-0.953-0.14-0.328-0.335-0.519-0.582-0.582l0.071-1.605c0.277 0.047 0.535 0.246 0.765 0.605 0.235 0.356 0.414 0.711 0.536 1.07-0.2-0.793-0.411-1.351-0.625-1.675z" inkscape:connector-curvature="0"/>
                    </g>
                  </g>
                </g>
              </g>
            </g>
          </g>
        </g>
      </g>
      <path id="path250" style="fill-rule:evenodd;fill:#94d142" d="m28.824 19.87c0.528-0.308 0.824-0.625 0.887-0.953-0.047 0.032-0.055-0.086-0.023-0.347 0.031-0.325 0.007-0.528-0.071-0.606-0.094-0.062-0.226 0.063-0.394 0.371-0.188 0.344-0.336 0.52-0.446 0.535-0.136 0.032-0.246-0.007-0.324-0.117-0.094-0.137-0.16-0.246-0.211-0.324-0.058-0.125-0.191-0.141-0.394-0.047-0.215 0.109-0.403 0.274-0.559 0.488-0.031 0.063-0.117 0.219-0.254 0.465-0.078 0.141-0.18 0.258-0.305 0.352-0.136 0.09-0.324 0.152-0.554 0.183h-0.328l-0.16-0.07c-0.063-0.016-0.204 0.024-0.422 0.117-0.231 0.141-0.395 0.235-0.489 0.282-0.23 0.105-0.488 0.039-0.765-0.211-0.11-0.11-0.172-0.118-0.188-0.024-0.031 0.094 0.055 0.266 0.258 0.512 0.172 0.234 0.48 0.375 0.93 0.418 0.234 0.015 0.441 0.015 0.629 0 0.121-0.031 0.324-0.106 0.605-0.231 0.199-0.093 0.442-0.156 0.719-0.187 0.387-0.047 0.691-0.102 0.906-0.16 0.281-0.078 0.598-0.227 0.953-0.446z" inkscape:connector-curvature="0"/>
      <path id="path252" style="fill-rule:evenodd;fill:#39521a" d="m38.297 10.331c-1.629-0.851-3.074-1.109-4.328-0.765-1.321 0.355-1.918 0.558-1.793 0.605 0.109 0.047 0.707 0.063 1.793 0.047 0.543 0.031 0.992 0.082 1.347 0.16 0.418 0.11 0.887 0.297 1.399 0.559 0.402 0.219 0.82 0.32 1.254 0.304 0.543 0 0.906 0.024 1.093 0.067 0.559 0.156 0.993 0.297 1.305 0.422-0.558-0.496-1.25-0.965-2.07-1.399z" inkscape:connector-curvature="0"/>
      <path id="path254" style="fill-rule:evenodd;fill:#3c571c" d="m19.219 11.331c0.34 0.684 0.812 1.321 1.418 1.91 0.293 0.293 0.558 0.528 0.793 0.696-0.032-0.031-0.071-0.074-0.118-0.137-0.078-0.141-0.124-0.312-0.14-0.512-0.016-0.172 0.016-0.605 0.094-1.304 0.031-0.746-0.063-1.387-0.282-1.93-0.293-0.73-0.765-1.398-1.418-2-0.73-0.684-1.496-1.086-2.304-1.211 0.761 1.906 1.414 3.406 1.957 4.488z" inkscape:connector-curvature="0"/>
      <path id="path256" style="fill-rule:evenodd;fill:#446120" d="m20.613 7.796c0.403 0.25 0.739 0.52 1 0.817-0.324-0.407-0.742-0.848-1.254-1.329-1.023-0.945-2.027-1.582-3.004-1.906-1.179-0.406-2.734-0.543-4.675-0.418-1.985 0.106-2.551 0.262-1.7 0.465 0.141 0.031 1.188 0.449 3.141 1.254 2.047 0.73 3.438 0.977 4.168 0.746 0.742-0.25 1.52-0.125 2.324 0.371z" inkscape:connector-curvature="0"/>
      <path id="path258" style="fill-rule:evenodd;fill:#6e9c33" d="m0.812 8.495-0.3 0.395c1.394-0.914 2.519-1.356 3.375-1.324 0.945 0.027 1.597 0.027 1.953 0 0.762-0.078 1.41-0.305 1.953-0.676 4.113-0.559 6.066-0.969 5.863-1.234-0.246-0.34-0.648-0.598-1.207-0.766-0.961-0.281-2.469-0.383-4.515-0.305-1.024 0.047-1.985 0.254-2.883 0.629-1.707 0.699-3.121 1.793-4.239 3.281z" inkscape:connector-curvature="0"/>
      <path id="path260" style="fill-rule:evenodd;fill:#6b9631" d="m0 13.472 1.535-2.93c1.242-2.125 2.434-3.59 3.586-4.398 0.695-0.496 1.914-0.899 3.652-1.211 0.868-0.152 1.665-0.254 2.395-0.301-0.867-0.152-1.891-0.183-3.07-0.094-2.36 0.172-4.297 0.84-5.817 2-1.258 0.965-2.015 2.407-2.281 4.328v2.606z" inkscape:connector-curvature="0"/>
      <path id="path262" style="fill-rule:evenodd;fill:#6b9630" d="m14.961 20.222c0.125 0 0.387-0.32 0.789-0.953 0.188-0.235 0.406-0.141 0.652 0.277l0.141-0.277c0.109-0.172 0.246-0.195 0.418-0.07 0.262 0.183 0.527 0.41 0.789 0.671l-0.418-1.136c-0.262-0.793-0.387-1.282-0.371-1.469 0.031-0.246-0.535-0.41-1.699-0.488-1.18-0.059-1.883 0.039-2.117 0.304-0.184 0.246-0.372 0.637-0.559 1.164l-0.231 0.719c0.34 0.11 0.665 0.371 0.977 0.793 0.168 0.231 0.356 0.516 0.559 0.859 0.109 0.141 0.3 0.118 0.582-0.07l0.488-0.324z" inkscape:connector-curvature="0"/>
      <path id="path264" style="fill-rule:evenodd;fill:#5c822a" d="m1.906 15.406c0.063 0.418 0.203 0.75 0.422 1 0.434 0.464 1.051 0.214 1.86-0.747 0.296-0.355 0.605-2.085 0.933-5.187 0.168-1.551 0.301-3.07 0.395-4.559-0.297 0.047-0.637 0.215-1.024 0.512-0.793 0.606-1.445 1.559-1.957 2.859-1.023 2.61-1.558 4.004-1.605 4.188-0.356 1.055-0.332 1.578 0.07 1.559 0.402-0.032 0.707 0.093 0.906 0.375z" inkscape:connector-curvature="0"/>
      <path id="path266" style="fill-rule:evenodd;fill:#89bf3f" d="m4.512 17.476c0.125 0.418 0.398 0.859 0.816 1.324 0.852 0.918 2.055 1.473 3.606 1.676 1.925 0.265 3.582 0.109 4.98-0.465 1.441-0.605 2.426-1.582 2.953-2.93 0.621-1.566 0.473-3.39-0.441-5.468-0.992-2.297-2.481-3.465-4.469-3.516-2.168-0.074-4.141 0.98-5.91 3.168-1.766 2.199-2.277 4.269-1.535 6.211z" inkscape:connector-curvature="0"/>
      <path id="path268" style="fill-rule:evenodd;fill:#7bab38" d="m15.773 16.917 0.188-1.883c0.062-1.46-0.063-2.73-0.371-3.816-0.313-1.102-0.918-1.723-1.817-1.863-1.519-0.016-2.945-0.102-4.281-0.254-1.676-0.188-2.722 0.262-3.14 1.348-0.141 1.21-0.262 1.902-0.372 2.074-0.449 0.726-0.628 1.308-0.535 1.742 0.188 0.793 1.301 0.91 3.352 0.351 2-0.542 3.769-0.328 5.305 0.649 0.757 0.496 1.316 1.047 1.671 1.652z" inkscape:connector-curvature="0"/>
      <path id="path270" style="fill-rule:evenodd;fill:#689131" d="m5.492 18.847 0.047 0.094 1.231-0.512c0.886-0.496 1.5-1.141 1.839-1.93 0.2-0.496 0.317-0.832 0.348-1l0.699-1.769c0.621-1.242 1.317-2.047 2.094-2.422 0.355-0.168 0.723-0.008 1.094 0.488 0.199 0.25 0.355 0.524 0.465 0.817l0.023-1.094c-0.047-0.774-0.227-1.27-0.535-1.488-0.324-0.215-1.867 0.371-4.629 1.769-1.383 0.684-2.73 1.395-4.047 2.141 0.199 0.773 0.41 1.566 0.625 2.371 0.434 1.597 0.684 2.445 0.746 2.535z" inkscape:connector-curvature="0"/>
      <path id="path272" style="fill-rule:evenodd;fill:#a5e64c" d="m9.75 20.429 0.324 0.094c0.235 0.062 0.434 0.093 0.606 0.093 0.261 0 0.465-0.015 0.605-0.046-0.437-0.063-0.754-0.125-0.953-0.188l-0.328-0.094 0.676-0.3 0.394-0.235 0.024 0.094c0.078 0.094 0.312 0.203 0.699 0.324 0.621 0.172 1.273 0.156 1.953-0.043-0.867 0.059-1.402 0.043-1.605-0.047-0.122-0.062-0.286-0.172-0.489-0.328l-0.254-0.207 0.696-0.445c0.172-0.094 0.304-0.207 0.398-0.348l0.254 0.301c0.219 0.203 0.477 0.336 0.77 0.398 0.48 0.09 1.031 0.063 1.652-0.093-0.25 0.015-0.504 0.023-0.77 0.023-0.527-0.016-0.851-0.094-0.976-0.234-0.11-0.157-0.18-0.309-0.211-0.465v-0.164l0.605-0.207c0.45-0.281 0.785-0.746 1-1.399 0.219-0.632 0.196-1.339-0.07-2.117-0.121-0.387-0.277-0.711-0.465-0.976 0.172 0.918 0.164 1.793-0.023 2.629-0.137 0.636-0.34 1.093-0.606 1.375-0.168 0.167-0.355 0.3-0.558 0.394l-0.278 0.117c-0.777 0.063-1.504 0.047-2.187-0.047-0.418-0.047-0.891-0.234-1.418-0.558-0.266-0.172-0.488-0.336-0.676-0.489 0.109 0.125 0.25 0.262 0.418 0.418 0.355 0.309 0.684 0.536 0.977 0.676 0.468 0.246 1.218 0.356 2.257 0.324-0.168 0.172-0.418 0.348-0.746 0.536l-0.488 0.257c-0.277-0.019-0.598-0.054-0.953-0.117-0.711-0.14-1.254-0.367-1.629-0.676l-1.348-1.21c0.215 0.48 0.586 0.921 1.118 1.324 0.543 0.422 1.386 0.738 2.535 0.957-0.387 0.168-0.715 0.269-0.977 0.301-0.297 0.031-0.746-0.079-1.351-0.325-0.747-0.312-1.243-0.707-1.489-1.187-0.187-0.371-0.355-0.719-0.511-1.047-0.047-0.109-0.071-0.133-0.071-0.07 0 0.187 0.133 0.543 0.395 1.07 0.328 0.652 0.668 1.07 1.023 1.258 0.559 0.261 1.078 0.426 1.559 0.488-0.711 0.078-1.184 0.082-1.418 0.02l-0.348-0.067 0.719 0.184c0.527 0.125 0.953 0.164 1.281 0.117l0.258-0.043z" inkscape:connector-curvature="0"/>
      <g id="g274">
        <g id="g276">
          <g id="g282">
            <path id="path290" style="fill-rule:evenodd;fill:url(#radialGradient284)" d="m2.211 18.757c-0.063-0.109-0.055-0.07 0.023 0.113 0.137 0.36 0.254 0.59 0.348 0.7 0.188 0.218 0.488 0.363 0.906 0.441 0.391 0.078 0.801-0.07 1.235-0.441 0.683-0.575 1.25-0.969 1.699-1.188 0.851-0.387 1.519-1.129 2-2.23 0.25-0.59 0.504-1.328 0.769-2.211 0.34-0.715 0.797-1.414 1.371-2.094 0.684-0.809 1.391-1.391 2.118-1.746 0.683-0.34 1.109-1.094 1.281-2.258 0.141-0.867 0.797-1.242 1.977-1.117-0.157-0.152-0.418-0.332-0.793-0.531-0.727-0.407-1.641-0.739-2.743-1.004-0.996-0.2-2.086-0.278-3.281-0.231-2.422 0.11-4.172 0.789-5.258 2.047-1.414 1.629-2.031 3.535-1.863 5.723 0.078 1.101 0.449 2.496 1.117 4.187 0.403 0.883 0.645 1.43 0.723 1.629 0.074 0.235-0.031 0.465-0.328 0.699-0.231 0.168-0.442 0.239-0.625 0.207-0.172-0.031-0.313-0.121-0.422-0.277-0.012-0.031-0.098-0.172-0.254-0.418z" inkscape:connector-curvature="0"/>
          </g>
        </g>
      </g>
      <g id="g292">
        <g id="g294">
          <g id="g300">
            <path id="path308" style="fill-rule:evenodd;fill:url(#radialGradient302)" d="m2.723 14.312v0.347l0.117-0.605c0.062-0.262 0.18-0.496 0.348-0.695l0.117 0.465 0.117 0.953-0.07-1.7 0.605-0.628c0.277-0.293 0.52-0.473 0.719-0.536 0 0.219 0.039 0.528 0.117 0.934l0.211 1.07c-0.652 0.371-1.063 0.836-1.234 1.395-0.11 0.34-0.176 0.637-0.208 0.883v0.281l0.067-0.512c0.094-0.418 0.258-0.777 0.492-1.07 0.387-0.481 0.703-0.699 0.953-0.653l0.254 1.118c0.047 0.199 0.219 0.527 0.512 0.976l0.418 0.629-0.301-0.676c-0.219-0.511-0.348-0.875-0.395-1.093-0.078-0.356-0.124-0.676-0.14-0.954l0.324 0.047c0.25 0.063 0.457 0.133 0.629 0.211 0.281 0.121 0.754 0.481 1.418 1.071-0.152-0.25-0.473-0.606-0.953-1.071-0.481-0.453-0.985-0.66-1.512-0.629l-0.207-2.07c0.387 0.031 0.797 0.149 1.231 0.348 0.418 0.203 0.761 0.394 1.023 0.582 0.016 0.48 0.055 0.847 0.117 1.094 0.031 0.156 0.094 0.316 0.188 0.488l0.117 0.234-0.047-0.676c0-0.312 0.039-0.574 0.117-0.793 0.137 0.079 0.317 0.204 0.535 0.375l0.649 0.559c-0.278-0.574-0.922-1.141-1.93-1.699-1.008-0.559-1.683-0.852-2.023-0.883l0.023-1.07c0-0.485 0.152-1.164 0.465-2.051 0.527-0.047 1.211 0.047 2.047 0.281 0.836 0.215 1.379 0.457 1.629 0.719l-0.024 0.91c0 0.172 0.032 0.41 0.094 0.719l0.094 0.422 0.113-0.91c0.078-0.434 0.227-0.715 0.445-0.836l1.606 1.324c-0.141-0.278-0.36-0.59-0.652-0.93-0.575-0.699-1.204-1.234-1.883-1.605-0.7-0.387-1.453-0.645-2.258-0.77l-1.024-0.047 0.184-0.324c0.172-0.293 0.414-0.613 0.723-0.953 0.511-0.559 1.347-0.938 2.511-1.141l-1.14-0.047c-0.449 0-0.914 0.141-1.395 0.418-0.297 0.172-0.613 0.559-0.957 1.164l-0.418 0.864c-0.23 0.136-0.504 0.34-0.812 0.601-0.606 0.528-1.071 1.086-1.399 1.676-0.324 0.574-0.547 1.219-0.672 1.934l-0.117 0.906 0.254-1.094c0.11-0.402 0.289-0.742 0.535-1.023l0.071 0.816c0.047 0.262 0.054 0.504 0.023 0.719l-0.047 0.234 0.164-0.281c0.094-0.23 0.149-0.488 0.16-0.766 0.032-0.464-0.011-0.847-0.136-1.14l0.371-0.512c0.265-0.328 0.738-0.777 1.418-1.352l-0.231 0.676c-0.093 0.278-0.172 0.789-0.234 1.535l-0.047 1.024c-0.82 0.558-1.348 1.148-1.582 1.769-0.137 0.371-0.23 0.711-0.277 1.024z" inkscape:connector-curvature="0"/>
          </g>
        </g>
      </g>
      <path id="path310" style="fill-rule:evenodd;fill:#90cc3f" d="m19.566 9.984c-0.418-1.379-1.464-2.364-3.14-2.953-1.614-0.59-3.598-1.071-5.957-1.442-1.176-0.187-2.196-0.32-3.047-0.398 0.652 0.125 1.355 0.449 2.117 0.976 1.535 1.055 2.566 2.617 3.094 4.68 0.433 1.676 0.652 3.109 0.652 4.305-0.015 0.929-0.008 1.418 0.024 1.464 0.136 0.2 0.332 0.34 0.582 0.418 0.121 0.032 0.566 0.102 1.324 0.211 0.59 0.09 1.023 0.286 1.305 0.582 0.168 0.184 0.355 0.539 0.554 1.067 0.203 0.558 0.43 0.887 0.676 0.98l-0.441-1c-0.215-0.746-0.118-1.289 0.3-1.629 0.516-0.437 0.981-1.062 1.399-1.886 0.418-0.836 0.652-1.621 0.695-2.348 0.098-1.43 0.051-2.437-0.137-3.027z" inkscape:connector-curvature="0"/>
      <path id="path312" style="fill-rule:evenodd;fill:#6a9431" d="m19.801 9.984c-0.406-1.379-1.446-2.364-3.121-2.953-1.625-0.59-3.614-1.071-5.953-1.442-1.18-0.187-2.196-0.32-3.051-0.398 0.652 0.125 1.359 0.449 2.117 0.976 1.519 1.055 2.547 2.617 3.074 4.68 0.434 1.676 0.649 3.109 0.649 4.305-0.016 0.929-0.008 1.418 0.023 1.464 0.141 0.2 0.336 0.34 0.582 0.418 0.125 0.032 0.567 0.102 1.328 0.211 0.606 0.09 1.031 0.262 1.278 0.512 0.171 0.168 0.343 0.496 0.511 0.977 0.219 0.574 0.391 0.953 0.516 1.14l-0.328-1c-0.141-0.746 0-1.289 0.418-1.629 0.511-0.418 0.976-1.046 1.398-1.886 0.418-0.836 0.649-1.621 0.696-2.348 0.093-1.43 0.046-2.437-0.137-3.027z" inkscape:connector-curvature="0"/>
      <path id="path314" style="fill-rule:evenodd;fill:#658c2d" d="m19.055 15.683c0.386-0.684 0.652-1.356 0.789-2.024-0.063-0.171-0.184-0.41-0.371-0.718-0.34-0.528-1.008-0.692-2-0.489-0.993 0.184-1.285 0.582-0.883 1.184 0.402 0.605 0.574 1.18 0.512 1.723-0.063 0.511-0.336 0.882-0.817 1.117-0.324 0.156-0.457 0.441-0.394 0.859 0.418 0.11 0.722 0.281 0.906 0.512 0.125 0.156 0.273 0.453 0.441 0.887 0.219 0.57 0.391 0.953 0.516 1.136l-0.328-1c-0.141-0.742 0-1.285 0.418-1.625 0.433-0.359 0.84-0.879 1.211-1.562z" inkscape:connector-curvature="0"/>
      <path id="path316" style="fill-rule:evenodd;fill:#8cc63f" d="m0.582 14.613c0.047 0.14 0.086 0.218 0.117 0.234 0.016 0.016 0.063-0.078 0.141-0.281 0.105-0.309 0.582-1.727 1.418-4.258 0.465-1.363 1.394-2.625 2.793-3.789 0.679-0.574 1.324-1.02 1.929-1.328-0.418 0.125-0.921 0.351-1.511 0.675-1.149 0.684-2.102 1.559-2.864 2.629-0.929 1.305-1.582 2.504-1.953 3.606-0.375 1.117-0.394 1.953-0.07 2.512z" inkscape:connector-curvature="0"/>
      <path id="path318" style="fill-rule:evenodd;fill:#86c236" d="m19.824 10.402c-0.406-1.364-1.203-2.543-2.398-3.536-1.348-1.132-2.946-1.785-4.793-1.953-1.922-0.172-3.528-0.172-4.817 0l-1.324 0.325c0.59-0.094 1.324-0.055 2.211 0.117 1.301 0.261 2.395 0.836 3.277 1.719 0.981 0.996 1.598 2.296 1.864 3.91 0.386 2.468 0.75 3.644 1.094 3.539 0.062-0.02 0.253-0.094 0.582-0.235 0.308-0.125 0.535-0.164 0.671-0.117 0.032 0.016 0.188 0.188 0.469 0.512 0.231 0.297 0.52 0.457 0.86 0.488 0.433 0.047 0.738 0.094 0.906 0.141 0.172 0.047 0.34 0.133 0.512 0.254 0.265 0.172 0.667 0.25 1.21 0.234 0.637-0.016 0.985-0.215 1.047-0.605 0.063-0.512 0.047-0.797-0.047-0.86-0.062-0.047-0.183 0-0.371 0.137-0.156 0.125-0.304 0.187-0.441 0.187-0.156 0.016-0.25-0.054-0.281-0.21-0.016-0.11 0-0.614 0.047-1.512 0.015-1.024-0.079-1.867-0.278-2.535z" inkscape:connector-curvature="0"/>
      <path id="path320" style="fill-rule:evenodd;fill:#60872c" d="m20.055 10.402c-0.403-1.364-1.203-2.543-2.395-3.536-1.351-1.132-2.941-1.785-4.769-1.953-1.926-0.172-3.532-0.172-4.817 0l-1.351 0.325c0.589-0.094 1.328-0.055 2.211 0.117 1.304 0.261 2.398 0.836 3.281 1.719 0.992 0.996 1.613 2.296 1.859 3.91 0.391 2.468 0.754 3.644 1.094 3.539 0.062-0.02 0.258-0.094 0.582-0.235 0.312-0.125 0.535-0.164 0.676-0.117 0.047 0.016 0.203 0.188 0.465 0.512 0.234 0.297 0.519 0.457 0.863 0.488 0.449 0.047 0.75 0.094 0.906 0.141 0.172 0.047 0.34 0.133 0.512 0.254 0.266 0.172 0.637 0.25 1.117 0.234 0.559-0.016 0.859-0.215 0.906-0.605 0.047-0.45 0.063-0.715 0.047-0.789-0.015-0.063-0.09-0.04-0.23 0.066-0.157 0.125-0.297 0.187-0.418 0.187-0.156 0.016-0.258-0.054-0.305-0.21-0.016-0.11 0-0.614 0.047-1.512 0.016-1.024-0.078-1.867-0.281-2.535z" inkscape:connector-curvature="0"/>
      <path id="path322" style="fill-rule:evenodd;fill:#537526" d="m20.289 14.452c-0.019-0.109 0-0.613 0.047-1.515 0.016-1.024-0.078-1.867-0.281-2.535-0.403-1.364-1.203-2.543-2.395-3.536-1.351-1.132-2.941-1.785-4.769-1.953-0.094-0.015-0.227-0.023-0.399-0.023 1.926 0.309 3.492 1.023 4.703 2.141 0.977 0.914 1.489 1.816 1.535 2.699 0.063 1.269-0.039 2.449-0.304 3.535l-0.418 1.234 0.558 0.231c0.215 0.078 0.395 0.094 0.536 0.047 0.203-0.063 0.402-0.094 0.605-0.094 0.324 0 0.543-0.031 0.652-0.09l-0.07-0.141z" inkscape:connector-curvature="0"/>
      <g id="g324">
        <g id="g340" mask="url(#mask332)">
          <g id="g352">
            <g id="g354" clip-path="url(#clipPath344)">
              <g id="g356" transform="translate(0 -.47337)">
                <g id="g360">
                  <g id="g362" clip-path="url(#clipPath348)">
                    <g id="g364">
                      <path id="path366" style="fill-rule:evenodd;fill:#000000" d="m19.371 14.352c-0.062-0.391-0.187-0.77-0.375-1.141-0.168-0.371-0.402-0.598-0.695-0.676l0.047-1.277c0-0.219 0.011-0.422 0.043-0.606 0.328 0.047 0.629 0.278 0.91 0.696 0.277 0.422 0.488 0.847 0.629 1.281-0.235-0.945-0.481-1.606-0.746-1.977-0.25-0.386-0.512-0.558-0.793-0.511l-0.512-1.77c-0.074-0.141 0.125-0.023 0.605 0.348 0.352 0.285 0.641 0.566 0.864 0.851-0.571-0.804-0.985-1.297-1.235-1.476-0.277-0.203-0.465-0.305-0.558-0.305-0.34-0.512-0.891-0.969-1.653-1.371-0.773-0.418-1.566-0.707-2.371-0.859 1.086 0.293 1.961 0.765 2.629 1.418l1.024 0.976c-0.684 0.031-1.243 0.223-1.676 0.582-0.266 0.215-0.488 0.488-0.676 0.813l-0.184 0.398 0.325-0.375c0.261-0.262 0.519-0.449 0.769-0.559 0.403-0.183 0.938-0.324 1.602-0.417 0.14 0.218 0.281 0.543 0.422 0.976l0.207 0.793c-0.852 0.137-1.465 0.387-1.836 0.742-0.235 0.219-0.442 0.473-0.629 0.77l-0.235 0.347c0.481-0.605 1.016-1 1.606-1.187 0.59-0.168 0.961-0.231 1.117-0.184 0.016 0.59 0.016 1.039 0 1.348l-0.023 0.465c-0.559 0-0.993 0.109-1.301 0.328l-0.723 0.605 0.418-0.21c0.344-0.157 0.621-0.25 0.84-0.282 0.355-0.043 0.59-0.058 0.695-0.043-0.074 0.246-0.074 0.61 0 1.09 0.078 0.485 0.243 0.871 0.489 1.164-0.153-0.543-0.231-1.008-0.231-1.394 0-0.403 0.024-0.676 0.07-0.817 0.11-0.074 0.301 0.055 0.582 0.399 0.262 0.34 0.45 0.687 0.559 1.047z" inkscape:connector-curvature="0"/>
                    </g>
                  </g>
                </g>
              </g>
            </g>
          </g>
        </g>
      </g>
      <path id="path368" style="fill-rule:evenodd;fill:#94d142" d="m2.676 19.917c0.293 0.188 0.699 0.227 1.211 0.117 0.261-0.062 0.496-0.14 0.699-0.23 0.121-0.094 0.316-0.266 0.578-0.512 0.188-0.172 0.43-0.328 0.723-0.468 0.418-0.184 0.746-0.364 0.976-0.536 0.25-0.183 0.543-0.472 0.883-0.859 0.313-0.355 0.52-0.715 0.629-1.07 0.125-0.356 0.125-0.465 0-0.325-0.047 0.047-0.102-0.085-0.164-0.398-0.074-0.355-0.176-0.555-0.301-0.602-0.125-0.046-0.215 0.129-0.277 0.536-0.094 0.449-0.195 0.703-0.305 0.765-0.137 0.078-0.316-0.07-0.535-0.441-0.277-0.528-0.426-0.793-0.441-0.793-0.11-0.106-0.258-0.031-0.442 0.234-0.156 0.25-0.281 0.535-0.371 0.86-0.031 0.156-0.047 0.484-0.047 0.976 0.016 0.406-0.031 0.684-0.14 0.84-0.11 0.156-0.293 0.285-0.559 0.395l-0.371 0.14h-0.188c-0.125 0-0.277 0.039-0.464 0.117-0.219 0.094-0.391 0.2-0.512 0.325-0.11 0.109-0.297 0.046-0.559-0.184-0.14-0.109-0.32-0.258-0.535-0.445-0.156-0.075-0.187 0.109-0.094 0.558 0.094 0.465 0.297 0.801 0.606 1z" inkscape:connector-curvature="0"/>
      <path id="path370" style="fill-rule:evenodd;fill:#7db038" d="m4.234 18.546c-0.125 0-0.277 0.039-0.464 0.117-0.219 0.094-0.391 0.2-0.512 0.325-0.11 0.109-0.297 0.046-0.559-0.188-0.14-0.105-0.32-0.254-0.535-0.441-0.109-0.047-0.148 0.07-0.117 0.351 0.187 0.063 0.355 0.16 0.512 0.301l0.418 0.395 0.257 0.046c0.168 0 0.262-0.066 0.278-0.207 0.015-0.156 0.125-0.312 0.328-0.464 0.168-0.145 0.328-0.223 0.488-0.235h-0.094z" inkscape:connector-curvature="0"/>
      <path id="path372" style="fill-rule:evenodd;fill:#7db038" d="m7.676 15.312c0.078 0 0.172 0.125 0.281 0.371 0.109 0.312 0.234 0.582 0.371 0.816 0.063-0.187 0.102-0.328 0.117-0.418 0-0.093-0.023-0.109-0.07-0.047-0.047 0.047-0.102-0.085-0.164-0.398-0.078-0.355-0.176-0.555-0.301-0.602-0.109-0.046-0.187 0.043-0.234 0.278z" inkscape:connector-curvature="0"/>
      <path id="path374" style="fill-rule:evenodd;fill:#7db038" d="m6.516 15.917c0.121 0.309 0.285 0.52 0.488 0.629 0.199 0.106 0.308 0.039 0.324-0.211-0.137 0.078-0.316-0.07-0.535-0.441-0.277-0.528-0.426-0.793-0.441-0.793-0.079-0.11-0.211-0.051-0.395 0.164 0.152-0.016 0.262 0.023 0.324 0.117 0.031 0.031 0.11 0.211 0.235 0.535z" inkscape:connector-curvature="0"/>
      <path id="path376" style="fill-rule:evenodd;fill:#c1fa73" d="m3.234 19.988c-0.062 0.078 0.024 0.086 0.254 0.023 0.172-0.047 0.383-0.211 0.629-0.488 0.094-0.141 0.488-0.332 1.188-0.582 0.187-0.11 0.308-0.203 0.371-0.282 0.078-0.074 0.125-0.191 0.14-0.347 0.016-0.11 0.102-0.192 0.254-0.254 0.203-0.078 0.336-0.149 0.399-0.211 0.324-0.262 0.59-0.387 0.789-0.371 0.14 0 0.297-0.211 0.465-0.629-0.078 0.152-0.168 0.285-0.278 0.394-0.047 0.032-0.172 0.055-0.371 0.071-0.187 0.015-0.336 0.07-0.445 0.164-0.121 0.121-0.215 0.207-0.277 0.254-0.063 0.047-0.188 0.086-0.372 0.117-0.187 0.031-0.32 0.125-0.394 0.281-0.063 0.184-0.117 0.324-0.164 0.418-0.094 0.231-0.52 0.457-1.281 0.672-0.094 0.016-0.184 0.102-0.278 0.258-0.093 0.14-0.195 0.23-0.304 0.277-0.168 0.067-0.278 0.141-0.325 0.235z" inkscape:connector-curvature="0"/>
      <path id="path378" style="fill-rule:evenodd;fill:#446120" d="m33.086 3.144c0.805-0.262 1.648-0.125 2.535 0.418 0.449 0.265 0.813 0.558 1.094 0.883-0.36-0.45-0.817-0.93-1.375-1.442-1.133-1.023-2.227-1.715-3.281-2.07-1.27-0.434-2.954-0.59-5.047-0.465-2.157 0.125-2.77 0.293-1.84 0.512 0.14 0.031 1.273 0.48 3.398 1.347 2.219 0.809 3.723 1.079 4.516 0.817z" inkscape:connector-curvature="0"/>
      <path id="path380" style="fill-rule:evenodd;fill:#6e9c33" d="m19.59 3.308c0.805-0.094 1.504-0.344 2.094-0.746 4.484-0.606 6.609-1.055 6.375-1.348-0.282-0.359-0.723-0.629-1.329-0.816-1.054-0.313-2.687-0.418-4.906-0.328-1.008 0.019-2.047 0.242-3.117 0.675-1.816 0.746-3.352 1.934-4.609 3.563l-0.325 0.441 1.301-0.746c0.996-0.496 1.785-0.73 2.375-0.699 1.055 0.031 1.77 0.031 2.141 0.004z" inkscape:connector-curvature="0"/>
      <path id="path382" style="fill-rule:evenodd;fill:#3c571c" d="m35.645 9.472c0.324 0.324 0.613 0.582 0.859 0.766-0.031-0.032-0.07-0.082-0.117-0.161-0.094-0.156-0.149-0.343-0.164-0.558-0.016-0.188 0.023-0.66 0.117-1.418 0.031-0.809-0.07-1.504-0.301-2.094-0.312-0.793-0.82-1.519-1.535-2.187-0.809-0.731-1.652-1.164-2.539-1.305 0.84 2.082 1.555 3.707 2.14 4.887 0.375 0.726 0.887 1.418 1.54 2.07z" inkscape:connector-curvature="0"/>
      <path id="path384" style="fill-rule:evenodd;fill:#83b83c" d="m13.586 7.007 0.863-2.023c0.805-1.524 1.836-2.723 3.094-3.61 0.758-0.543 1.836-0.929 3.234-1.16 0.715-0.125 1.34-0.187 1.883-0.187-0.683-0.063-1.48-0.016-2.394 0.14-1.832 0.309-3.352 0.985-4.563 2.024-1.301 1.117-2.047 2.258-2.234 3.418l0.117 1.398z" inkscape:connector-curvature="0"/>
      <path id="path386" style="fill-rule:evenodd;fill:#6b9630" d="m28.941 17.406 0.536-0.348c0.062 0 0.234 0.051 0.511 0.16 0.282 0.094 0.485 0.063 0.606-0.094 0.218-0.246 0.367-0.519 0.441-0.812l0.141-0.305c0.14-0.168 0.304-0.191 0.488-0.07 0.281 0.219 0.566 0.469 0.863 0.746l-0.465-1.231c-0.296-0.871-0.429-1.406-0.398-1.605 0.031-0.266-0.59-0.438-1.859-0.516-1.289-0.09-2.055 0.02-2.305 0.328-0.199 0.247-0.402 0.665-0.605 1.254l-0.254 0.793c0.386 0.121 0.746 0.41 1.07 0.86 0.184 0.25 0.387 0.558 0.605 0.929 0.122 0.161 0.332 0.129 0.625-0.089z" inkscape:connector-curvature="0"/>
      <path id="path388" style="fill-rule:evenodd;fill:#5c822a" d="m17.773 12.101c0.313-0.387 0.645-2.274 1-5.652 0.172-1.676 0.313-3.321 0.422-4.934-0.312 0.047-0.683 0.234-1.117 0.559-0.84 0.652-1.535 1.683-2.094 3.093-0.714 1.832-1.125 3.551-1.234 5.164-0.109 1.551 0.094 2.313 0.605 2.282 0.45-0.032 0.661-0.118 0.629-0.254l0.489 0.394c0.402 0.153 0.836-0.062 1.3-0.652z" inkscape:connector-curvature="0"/>
      <path id="path390" style="fill-rule:evenodd;fill:#89bf3f" d="m19.801 7.331c-1.942 2.403-2.5 4.653-1.676 6.746l0.883 1.422c0.93 1.008 2.242 1.617 3.933 1.836 2.063 0.281 3.86 0.11 5.395-0.511 1.566-0.653 2.637-1.708 3.211-3.165 0.668-1.722 0.515-3.707-0.465-5.957-1.086-2.48-2.707-3.761-4.859-3.836-2.36-0.078-4.5 1.075-6.422 3.465z" inkscape:connector-curvature="0"/>
      <path id="path392" style="fill-rule:evenodd;fill:#689131" d="m19.449 15.894 1.024-0.699c0.855-0.481 1.754-0.766 2.699-0.86 1.488-0.156 2.437-0.332 2.84-0.535v-1.465c0.031-1.054 0.14-1.785 0.324-2.187 0.281-0.621 0.73-1.071 1.352-1.352l0.023-1.207c-0.047-0.84-0.242-1.375-0.582-1.605-0.344-0.235-2.02 0.402-5.027 1.906l-4.395 2.328c0.215 0.852 0.441 1.711 0.672 2.582 0.465 1.75 0.73 2.676 0.793 2.77 0.105 0.183 0.199 0.293 0.277 0.324z" inkscape:connector-curvature="0"/>
      <path id="path394" style="fill-rule:evenodd;fill:#a5e64c" d="m28.871 16.148c-0.574 0-0.922-0.082-1.047-0.254-0.121-0.172-0.199-0.332-0.23-0.488-0.016-0.079-0.024-0.141-0.024-0.188l0.653-0.23c0.48-0.297 0.843-0.801 1.089-1.512 0.25-0.699 0.227-1.477-0.07-2.328-0.137-0.418-0.308-0.766-0.512-1.047 0.204 1.023 0.204 1.976 0 2.859-0.152 0.699-0.378 1.196-0.671 1.492-0.172 0.168-0.375 0.317-0.606 0.442l-0.305 0.14c-0.836 0.059-1.625 0.036-2.371-0.07-0.465-0.062-0.976-0.273-1.535-0.629l-0.722-0.511 0.464 0.464c0.356 0.325 0.7 0.575 1.024 0.746 0.512 0.247 1.336 0.356 2.469 0.325-0.204 0.203-0.485 0.394-0.84 0.582l-0.512 0.281c-0.313-0.02-0.66-0.055-1.047-0.117-0.777-0.156-1.367-0.406-1.769-0.746l-1.442-1.305 0.278 0.469c0.265 0.371 0.574 0.695 0.933 0.976 0.574 0.45 1.488 0.789 2.746 1.024-0.422 0.183-0.769 0.293-1.051 0.324-0.339 0.031-0.828-0.086-1.464-0.348-0.805-0.328-1.348-0.754-1.629-1.281-0.2-0.402-0.387-0.785-0.555-1.141-0.051-0.109-0.07-0.132-0.07-0.07 0 0.203 0.136 0.59 0.418 1.164 0.355 0.715 0.726 1.164 1.117 1.352 0.617 0.293 1.183 0.472 1.699 0.535-0.777 0.09-1.297 0.105-1.562 0.043l-0.372-0.09 0.77 0.207c0.586 0.141 1.055 0.18 1.395 0.117l0.304-0.047 0.324 0.094c0.262 0.063 0.489 0.094 0.676 0.094l0.649-0.024-1.371-0.3 1.164-0.586v0.117c0.089 0.094 0.347 0.203 0.765 0.328 0.684 0.184 1.387 0.172 2.117-0.047-0.929 0.063-1.503 0.039-1.722-0.07-0.137-0.063-0.324-0.172-0.559-0.328l-0.277-0.231 0.789-0.488c0.172-0.094 0.312-0.227 0.422-0.395l0.277 0.325c0.231 0.23 0.512 0.379 0.836 0.441 0.516 0.109 1.109 0.078 1.793-0.094-0.262 0.032-0.539 0.039-0.836 0.024z" inkscape:connector-curvature="0"/>
      <g id="g396">
        <g id="g398">
          <g id="g404">
            <path id="path412" style="fill-rule:evenodd;fill:url(#radialGradient406)" d="m27.734 4.726c0.481-1.692 1.418-2.465 2.813-2.328-0.168-0.168-0.457-0.364-0.859-0.578-0.809-0.454-1.801-0.817-2.981-1.094-1.066-0.219-2.262-0.297-3.582-0.235-2.621 0.11-4.527 0.848-5.723 2.211-1.535 1.77-2.211 3.84-2.023 6.211 0.094 1.164 0.504 2.684 1.23 4.563 0.453 0.961 0.707 1.551 0.77 1.765 0.094 0.266-0.024 0.52-0.348 0.77-0.469 0.355-0.847 0.324-1.14-0.094-0.016-0.031-0.11-0.179-0.282-0.441-0.062-0.125-0.054-0.078 0.024 0.14 0.187 0.403 0.32 0.649 0.394 0.743 0.203 0.25 0.528 0.41 0.981 0.488 0.418 0.078 0.867-0.09 1.347-0.512 0.731-0.605 1.344-1.023 1.84-1.254 1.489-0.683 3.278-1.148 5.371-1.398-0.121 0.016-0.105-0.684 0.047-2.094 0.141-1.473 0.414-2.449 0.817-2.93 0.308-0.371 0.574-0.968 0.793-1.793 0.105-0.464 0.277-1.179 0.511-2.14z" inkscape:connector-curvature="0"/>
          </g>
        </g>
      </g>
      <g id="g414">
        <g id="g416">
          <g id="g422">
            <path id="path430" style="fill-rule:evenodd;fill:url(#radialGradient424)" d="m20.031 13.519-0.347-0.742c-0.235-0.543-0.375-0.942-0.418-1.188-0.078-0.387-0.133-0.73-0.164-1.023l0.347 0.07c0.281 0.047 0.512 0.117 0.699 0.211 0.309 0.137 0.821 0.527 1.536 1.16-0.172-0.277-0.512-0.664-1.024-1.16-0.527-0.496-1.078-0.723-1.652-0.676l-0.231-2.258 0.395 0.071c0.34 0.062 0.656 0.164 0.953 0.3 0.465 0.219 0.828 0.438 1.094 0.653 0.031 0.496 0.078 0.883 0.14 1.164 0.032 0.168 0.09 0.355 0.184 0.558l0.141 0.231-0.047-0.742c0-0.328 0.039-0.606 0.117-0.84l0.582 0.375 0.719 0.625c-0.078-0.152-0.215-0.348-0.418-0.582-0.434-0.481-0.992-0.906-1.676-1.277-1.102-0.606-1.836-0.926-2.207-0.958l0.043-1.136c0-0.528 0.164-1.274 0.492-2.235h0.602c0.511 0.032 1.054 0.125 1.629 0.278 0.902 0.25 1.488 0.515 1.769 0.793l-0.047 1c0 0.183 0.039 0.449 0.117 0.789l0.094 0.445 0.137-1.004c0.078-0.465 0.242-0.765 0.488-0.906l0.211 0.211c0.141 0.14 0.645 0.551 1.512 1.23-0.156-0.293-0.387-0.625-0.699-1-0.602-0.757-1.286-1.34-2.047-1.742-0.758-0.422-1.582-0.691-2.465-0.816l-1.094-0.071 0.188-0.347c0.183-0.328 0.449-0.676 0.789-1.047 0.355-0.375 0.922-0.692 1.699-0.953 0.387-0.141 0.738-0.235 1.047-0.281l-1.258-0.047c-0.496 0-1 0.156-1.512 0.464-0.324 0.188-0.672 0.606-1.047 1.258l-0.441 0.93c-0.262 0.152-0.559 0.371-0.883 0.652-0.668 0.575-1.172 1.176-1.512 1.813-0.343 0.637-0.589 1.344-0.746 2.117l-0.117 0.977 0.277-1.184c0.11-0.453 0.305-0.824 0.582-1.117l0.071 0.906c0.047 0.293 0.055 0.551 0.023 0.77l-0.047 0.253 0.164-0.3c0.125-0.266 0.196-0.551 0.211-0.864 0.016-0.496-0.046-0.906-0.187-1.23l0.418-0.535c0.281-0.36 0.793-0.856 1.539-1.488l-0.258 0.742c-0.094 0.312-0.172 0.871-0.234 1.675l-0.047 1.118c-0.899 0.605-1.481 1.242-1.742 1.906-0.157 0.406-0.25 0.777-0.282 1.117v0.371l0.118-0.648c0.062-0.281 0.187-0.528 0.371-0.746l0.117 0.488 0.141 1.047-0.071-1.836 0.653-0.699c0.292-0.325 0.55-0.52 0.765-0.582 0.016 0.25 0.063 0.589 0.141 1.023l0.234 1.164c-0.715 0.387-1.164 0.883-1.351 1.488-0.125 0.372-0.196 0.7-0.211 0.977v0.305l0.07-0.559c0.094-0.434 0.273-0.816 0.535-1.141 0.402-0.527 0.746-0.769 1.024-0.722l0.281 1.211c0.047 0.218 0.23 0.574 0.558 1.07 0.157 0.25 0.309 0.477 0.465 0.676z" inkscape:connector-curvature="0"/>
          </g>
        </g>
      </g>
      <path id="path432" style="fill-rule:evenodd;fill:#90cc3f" d="m31.781 15.613c0.141 0.39 0.309 0.683 0.512 0.886 0.094 0.09 0.172 0.153 0.234 0.184l-0.488-1.094c-0.234-0.789-0.125-1.379 0.324-1.765 0.559-0.465 1.063-1.141 1.512-2.028 0.453-0.914 0.699-1.773 0.746-2.582 0.109-1.519 0.063-2.621-0.141-3.301-0.449-1.488-1.582-2.562-3.394-3.211-1.77-0.621-3.934-1.14-6.492-1.562l-3.305-0.418c0.715 0.125 1.481 0.484 2.305 1.07 1.66 1.149 2.773 2.84 3.347 5.074 0.485 1.817 0.715 3.372 0.7 4.676 0 1.024 0.015 1.559 0.047 1.606 0.156 0.218 0.367 0.363 0.628 0.441 0.141 0.031 0.622 0.11 1.442 0.235 0.637 0.093 1.109 0.3 1.418 0.628 0.187 0.2 0.386 0.586 0.605 1.161z" inkscape:connector-curvature="0"/>
      <path id="path434" style="fill-rule:evenodd;fill:#6a9431" d="m31.965 15.452 0.558 1.231-0.371-1.09c-0.14-0.793 0.016-1.383 0.465-1.769 0.559-0.465 1.063-1.141 1.512-2.024 0.453-0.918 0.707-1.777 0.769-2.582 0.094-1.555 0.04-2.652-0.164-3.305-0.449-1.488-1.582-2.558-3.394-3.211-1.77-0.621-3.934-1.14-6.492-1.558l-3.305-0.418c0.715 0.121 1.484 0.48 2.305 1.07 1.66 1.145 2.785 2.836 3.375 5.07 0.465 1.817 0.687 3.375 0.672 4.676 0 1.024 0.015 1.559 0.046 1.606 0.157 0.218 0.368 0.367 0.629 0.445 0.141 0.027 0.621 0.106 1.442 0.231 0.652 0.093 1.113 0.281 1.375 0.558 0.183 0.168 0.379 0.527 0.578 1.07z" inkscape:connector-curvature="0"/>
      <path id="path436" style="fill-rule:evenodd;fill:#658c2d" d="m32.523 16.683-0.371-1.09c-0.14-0.793 0.016-1.383 0.465-1.769 0.481-0.403 0.922-0.969 1.328-1.7 0.403-0.73 0.68-1.457 0.836-2.187-0.078-0.231-0.211-0.496-0.394-0.789-0.375-0.574-1.102-0.754-2.188-0.535-1.07 0.203-1.387 0.628-0.953 1.281 0.449 0.664 0.637 1.285 0.559 1.859s-0.371 0.985-0.883 1.235c-0.36 0.183-0.496 0.496-0.418 0.929 0.449 0.121 0.773 0.309 0.976 0.559 0.153 0.172 0.317 0.496 0.489 0.976l0.554 1.231z" inkscape:connector-curvature="0"/>
      <path id="path438" style="fill-rule:evenodd;fill:#8cc63f" d="m14.191 12.472c0.313 0.387 0.504 0.566 0.582 0.535 0.079-0.047 0.141-0.324 0.188-0.836 0.152-2.312 0.394-4.273 0.719-5.887 0.297-1.535 1.242-2.921 2.84-4.164 0.804-0.621 1.574-1.086 2.304-1.394-0.465 0.121-1.019 0.371-1.652 0.742-1.258 0.731-2.297 1.676-3.117 2.84-0.961 1.351-1.629 2.918-2 4.699-0.375 1.723-0.328 2.879 0.136 3.465z" inkscape:connector-curvature="0"/>
      <path id="path440" style="fill-rule:evenodd;fill:#86c236" d="m35.062 9.124c0.016-1.117-0.085-2.031-0.304-2.746-0.434-1.472-1.301-2.754-2.606-3.84-1.457-1.222-3.187-1.929-5.187-2.117-2.094-0.199-3.832-0.199-5.211 0l-1.465 0.371 0.649-0.043c0.542-0.019 1.117 0.039 1.722 0.16 1.426 0.282 2.621 0.899 3.582 1.864 1.07 1.086 1.746 2.496 2.024 4.234 0.422 2.684 0.816 3.969 1.187 3.859 0.078-0.031 0.285-0.121 0.629-0.277 0.34-0.125 0.582-0.164 0.719-0.117 0.031 0.016 0.203 0.199 0.511 0.559 0.266 0.308 0.583 0.488 0.958 0.535 0.48 0.062 0.804 0.117 0.976 0.16 0.184 0.047 0.371 0.133 0.559 0.258 0.277 0.203 0.718 0.293 1.324 0.277 0.683-0.016 1.055-0.238 1.117-0.672 0.078-0.543 0.063-0.855-0.047-0.933-0.078-0.043-0.215 0.007-0.418 0.164-0.172 0.125-0.324 0.195-0.465 0.211-0.156 0-0.257-0.079-0.304-0.235-0.028-0.121-0.012-0.68 0.05-1.672z" inkscape:connector-curvature="0"/>
      <path id="path442" style="fill-rule:evenodd;fill:#60872c" d="m35.316 9.124c0.016-1.117-0.086-2.031-0.3-2.746-0.434-1.472-1.305-2.754-2.606-3.84-1.457-1.222-3.187-1.929-5.187-2.117-2.094-0.199-3.832-0.199-5.215 0l-1.465 0.371 0.652-0.043c0.559-0.019 1.133 0.039 1.723 0.16 1.426 0.282 2.617 0.899 3.582 1.864 1.07 1.086 1.746 2.496 2.023 4.234 0.418 2.684 0.817 3.969 1.188 3.859 0.078-0.031 0.285-0.121 0.625-0.277 0.344-0.125 0.582-0.164 0.723-0.117 0.031 0.016 0.203 0.199 0.511 0.559 0.266 0.308 0.582 0.488 0.953 0.535 0.481 0.062 0.809 0.117 0.977 0.16 0.188 0.047 0.375 0.133 0.559 0.258 0.281 0.203 0.683 0.293 1.211 0.277 0.605-0.016 0.929-0.238 0.976-0.672 0.047-0.496 0.063-0.777 0.047-0.84-0.016-0.062-0.098-0.039-0.254 0.071-0.156 0.125-0.305 0.195-0.441 0.211-0.172 0-0.282-0.079-0.328-0.235-0.032-0.121-0.016-0.68 0.046-1.672z" inkscape:connector-curvature="0"/>
      <path id="path444" style="fill-rule:evenodd;fill:#537526" d="m35.27 10.796c-0.032-0.121-0.016-0.68 0.046-1.672 0.016-1.117-0.086-2.035-0.3-2.746-0.434-1.476-1.305-2.754-2.606-3.84-1.457-1.226-3.187-1.929-5.187-2.117l-0.418-0.047c2.093 0.344 3.789 1.117 5.093 2.328 1.071 1.008 1.629 1.993 1.676 2.954 0.063 1.378-0.047 2.66-0.328 3.839l-0.441 1.325 0.605 0.254c0.25 0.093 0.434 0.117 0.559 0.074 0.25-0.063 0.472-0.094 0.676-0.094 0.308 0 0.543-0.039 0.695-0.117l-0.07-0.141z" inkscape:connector-curvature="0"/>
      <g id="g446">
        <g id="g462" mask="url(#mask454)">
          <g id="g474">
            <g id="g476" clip-path="url(#clipPath466)">
              <g id="g478" transform="translate(0 -.47337)">
                <g id="g482">
                  <g id="g484" clip-path="url(#clipPath470)">
                    <g id="g486">
                      <path id="path488" style="fill-rule:evenodd;fill:#000000" d="m33.25 11.438c-0.168-0.571-0.254-1.079-0.254-1.512 0-0.434 0.031-0.719 0.094-0.86 0.105-0.093 0.308 0.047 0.601 0.418 0.297 0.356 0.5 0.731 0.606 1.118-0.063-0.403-0.184-0.805-0.371-1.211-0.203-0.418-0.465-0.668-0.789-0.743l0.066-1.398c0-0.23 0.016-0.457 0.047-0.672 0.359 0.063 0.691 0.324 1 0.789 0.297 0.449 0.52 0.906 0.676 1.375-0.262-1.027-0.535-1.746-0.813-2.164-0.281-0.406-0.566-0.582-0.863-0.535l-0.559-1.934c-0.078-0.152 0.141-0.031 0.653 0.375 0.441 0.36 0.789 0.711 1.047 1.059-0.668-0.953-1.149-1.531-1.442-1.734-0.297-0.204-0.496-0.301-0.605-0.301-0.371-0.559-0.977-1.067-1.813-1.516-0.84-0.449-1.691-0.765-2.562-0.953 1.179 0.328 2.133 0.848 2.863 1.559l1.094 1.047c-0.731 0.046-1.336 0.265-1.817 0.652-0.293 0.25-0.535 0.543-0.718 0.883l-0.211 0.441 0.347-0.418c0.297-0.293 0.575-0.496 0.84-0.605 0.434-0.2 1.016-0.348 1.742-0.442 0.157 0.219 0.313 0.567 0.469 1.047l0.207 0.863c-0.914 0.153-1.582 0.426-2 0.813-0.246 0.25-0.48 0.519-0.699 0.816l-0.231 0.395c0.528-0.668 1.11-1.094 1.743-1.281 0.652-0.184 1.066-0.262 1.234-0.231 0.016 0.649 0.016 1.149 0 1.488l-0.047 0.512c-0.59 0-1.062 0.117-1.418 0.348-0.219 0.14-0.41 0.297-0.582 0.465l-0.187 0.187 0.464-0.234c0.344-0.153 0.637-0.246 0.887-0.278 0.387-0.062 0.645-0.086 0.766-0.07-0.078 0.281-0.078 0.676 0 1.188 0.094 0.511 0.273 0.929 0.535 1.254z" inkscape:connector-curvature="0"/>
                    </g>
                  </g>
                </g>
              </g>
            </g>
          </g>
        </g>
      </g>
      <path id="path490" style="fill-rule:evenodd;fill:#94d142" d="m19.867 15.382c0.266-0.141 0.684-0.324 1.258-0.558 0.668-0.293 2.148-0.676 4.445-1.141-0.14-0.031-0.304-0.149-0.488-0.348-0.344-0.406-0.598-1.011-0.77-1.816-0.109-0.543-0.285-0.828-0.535-0.86l-0.324 0.137c-0.406 0.156-0.574 0.473-0.512 0.957l0.207 0.672-0.441-0.605c-0.246-0.356-0.379-0.543-0.395-0.555-0.203-0.172-0.558-0.281-1.07-0.328-0.48-0.063-0.82 0.394-1.023 1.375-0.141 1.039-0.25 1.617-0.324 1.742-0.11 0.172-0.375 0.289-0.793 0.352-0.34 0.062-0.723 0.07-1.141 0.023-0.293-0.031-0.527 0.16-0.699 0.582l-0.16 0.648c-0.204 0-0.454-0.152-0.747-0.464-0.187-0.2-0.351-0.309-0.488-0.325l-0.14 0.024c-0.094 0.172-0.125 0.41-0.094 0.719 0.047 0.328 0.117 0.574 0.211 0.746 0.156 0.265 0.41 0.441 0.765 0.535 0.746 0.219 1.453-0.024 2.118-0.723 0.312-0.308 0.691-0.574 1.14-0.789z" inkscape:connector-curvature="0"/>
      <path id="path492" style="fill-rule:evenodd;fill:#7db038" d="m17.148 16.031-0.07-0.372c-0.187 0-0.426-0.156-0.723-0.464-0.183-0.204-0.347-0.309-0.488-0.325l-0.137 0.024-0.093 0.324c0.125-0.047 0.301 0.023 0.535 0.211 0.418 0.371 0.742 0.574 0.976 0.602z" inkscape:connector-curvature="0"/>
      <path id="path494" style="fill-rule:evenodd;fill:#7db038" d="m24.359 12.824c0.356 0.339 0.567 0.535 0.629 0.582 0.231 0.183 0.395 0.261 0.489 0.23-0.188-0.078-0.375-0.246-0.559-0.512-0.281-0.386-0.48-0.922-0.606-1.605-0.109-0.543-0.285-0.828-0.535-0.86l-0.324 0.141c-0.359 0.152-0.535 0.434-0.535 0.836 0.059-0.48 0.293-0.676 0.695-0.582 0.157 0.047 0.266 0.285 0.325 0.723 0.082 0.496 0.218 0.843 0.421 1.047z" inkscape:connector-curvature="0"/>
      <path id="path496" style="fill-rule:evenodd;fill:#7db038" d="m19.496 14.566c0.281-0.153 0.41-0.325 0.399-0.512-0.11 0.172-0.375 0.285-0.793 0.352-0.34 0.058-0.723 0.066-1.141 0.023-0.156-0.016-0.301 0.043-0.441 0.184 0.125-0.016 0.292 0.007 0.511 0.07 0.246 0.062 0.465 0.094 0.653 0.094 0.293 0 0.566-0.071 0.812-0.211z" inkscape:connector-curvature="0"/>
      <path id="path498" style="fill-rule:evenodd;fill:#7db038" d="m22.312 11.937c0.126 0.219 0.243 0.387 0.348 0.512 0.203 0.218 0.457 0.417 0.77 0.605-0.047-0.063-0.102-0.148-0.164-0.254-0.11-0.203-0.192-0.387-0.254-0.559l-0.305-0.417c-0.137-0.25-0.262-0.426-0.371-0.536-0.184-0.172-0.512-0.289-0.977-0.351 0.215 0.078 0.403 0.203 0.559 0.375 0.121 0.168 0.254 0.379 0.394 0.625z" inkscape:connector-curvature="0"/>
      <path id="path500" style="fill-rule:evenodd;fill:#c1fa73" d="m19.844 15.101c0.062-0.047 0.218-0.184 0.468-0.418 0.153-0.152 0.293-0.25 0.418-0.277 0.047-0.016 0.247-0.016 0.606 0 0.293 0 0.512-0.047 0.648-0.141 0.11-0.063 0.235-0.164 0.375-0.305 0.137-0.121 0.262-0.215 0.371-0.277 0.11-0.078 0.27-0.117 0.489-0.117 0.215-0.016 0.347-0.032 0.394-0.047 0.137-0.059 0.266-0.18 0.383-0.36-0.058 0.086-0.164 0.168-0.312 0.243-0.141 0.078-0.426 0.117-0.86 0.117-0.125 0-0.289 0.062-0.488 0.187-0.188 0.121-0.336 0.262-0.445 0.418-0.09 0.141-0.286 0.196-0.582 0.164-0.465-0.031-0.704-0.05-0.719-0.05-0.188 0.019-0.395 0.132-0.629 0.351-0.219 0.25-0.363 0.402-0.441 0.465-0.11 0.094-0.301 0.195-0.582 0.305-0.293 0.105-0.528 0.16-0.7 0.16-0.152 0-0.308 0.094-0.465 0.281-0.015 0.016-0.125 0.16-0.324 0.441-0.156 0.215-0.453 0.305-0.887 0.254-0.339-0.121-0.472-0.144-0.394-0.066 0.125 0.152 0.297 0.246 0.512 0.277 0.187 0.016 0.363-0.015 0.535-0.093 0.308-0.122 0.543-0.332 0.699-0.625 0.094-0.125 0.176-0.211 0.254-0.258 0.062-0.016 0.195-0.039 0.394-0.071 0.438-0.074 0.864-0.261 1.282-0.558z" inkscape:connector-curvature="0"/>
    </g>
  </g>
<metadata><rdf:RDF><cc:Work><dc:format>image/svg+xml</dc:format><dc:type rdf:resource="http://purl.org/dc/dcmitype/StillImage"/><cc:license rdf:resource="http://creativecommons.org/licenses/publicdomain/"/><dc:publisher><cc:Agent rdf:about="http://openclipart.org/"><dc:title>Openclipart</dc:title></cc:Agent></dc:publisher></cc:Work><cc:License rdf:about="http://creativecommons.org/licenses/publicdomain/"><cc:permits rdf:resource="http://creativecommons.org/ns#Reproduction"/><cc:permits rdf:resource="http://creativecommons.org/ns#Distribution"/><cc:permits rdf:resource="http://creativecommons.org/ns#DerivativeWorks"/></cc:License></rdf:RDF></metadata></svg>
