<?xml version="1.0" encoding="UTF-8" standalone="no"?>
<!-- Created with Inkscape (http://www.inkscape.org/) -->
<svg xmlns:svg="http://www.w3.org/2000/svg" xmlns="http://www.w3.org/2000/svg" xmlns:inkscape="http://www.inkscape.org/namespaces/inkscape" xmlns:sodipodi="http://sodipodi.sourceforge.net/DTD/sodipodi-0.dtd" xmlns:ns1="http://sozi.baierouge.fr" xmlns:xlink="http://www.w3.org/1999/xlink" xmlns:dc="http://purl.org/dc/elements/1.1/" xmlns:cc="http://web.resource.org/cc/" version="1.0" width="680.61218" height="497.51755" id="svg10475" inkscape:version="0.91 r13725" xmlns:rdf="http://www.w3.org/1999/02/22-rdf-syntax-ns#">
  <defs id="defs10477"/>
  <g transform="translate(-177.46586,-385.92252)" id="layer1">
    <g transform="matrix(1.3659557,0,0,1.3200472,-64.936601,-123.52037)" id="g11222">
      <g id="g11307">
        <path d="M 257.48175,419.67738 L 259.54948,447.85221 L 257.38732,488.21741 L 260.63056,512.20253 C 260.63056,512.20253 255.72531,537.25895 260.09002,547.88769 C 264.45473,558.51643 278.13788,570.42897 289.27927,576.55285 C 300.42066,582.67673 331.98206,586.49789 331.98206,586.49789 L 362.25238,577.72284 C 362.25238,577.72284 378.85776,554.06249 381.49437,542.50536 C 384.13099,530.94823 379.49372,503.66105 379.49372,503.66105 L 381.71189,482.36739 L 379.00918,453.11724 L 383.87406,430.30213 C 383.87406,430.30213 384.37067,406.9926 381.17134,411.58204 C 358.53267,444.05726 273.94997,425.68811 262.14019,414.50731 C 260.23201,412.70076 257.48175,419.67738 257.48175,419.67738 z" id="path10541" style="fill:#e3dbdb;fill-rule:evenodd;stroke:#000000;stroke-width:1.89999998;stroke-linecap:round;stroke-linejoin:round;stroke-miterlimit:4;stroke-dasharray:none;stroke-opacity:1"/>
        <path d="M 178.39387,680.06193 L 413.19687,761.85517 L 674.79421,597.56358 L 674.79421,565.83344 L 476.65715,520.00102 L 181.91944,646.92156 L 178.39387,680.06193 z" id="path10535" style="fill:#784421;fill-rule:evenodd;stroke:#000000;stroke-width:1.89999998;stroke-linecap:round;stroke-linejoin:round;stroke-miterlimit:4;stroke-dasharray:none;stroke-opacity:1"/>
        <path d="M 181.91944,646.21645 L 410.37642,720.95855 L 674.79421,564.42321 L 474.5418,519.29591 L 181.91944,646.21645 z" id="path10537" style="fill:#a05a2c;fill-rule:evenodd;stroke:#000000;stroke-width:1.89999998;stroke-linecap:round;stroke-linejoin:round;stroke-miterlimit:4;stroke-dasharray:none;stroke-opacity:1"/>
        <path d="M 556.33504,591.92266 L 552.80947,601.08915 L 544.3481,608.14029 L 538.00207,608.8454 L 526.72025,606.73006 L 476.65715,581.34595 L 444.2219,564.42321 L 477.36226,541.15445 L 550.69413,567.24367 L 556.33504,591.92266 z" id="path10571" style="fill:#f9f9f9;fill-rule:evenodd;stroke:#000000;stroke-width:1.89999998;stroke-linecap:round;stroke-linejoin:round;stroke-miterlimit:4;stroke-dasharray:none;stroke-opacity:1"/>
        <path d="M 453.44374,554.11816 L 457.67314,542.7005 L 473.83669,531.28285 L 492.87477,527.05216 L 526.72025,526.34705 L 553.51458,532.69308 L 576.78335,544.68002 L 594.76003,562.07782 L 593.18822,572.47405 L 580.79075,584.85351 L 553.79114,596.97441 L 524.60491,591.21755 L 460.00691,563.23014 L 453.44374,554.11816 z" id="path10567" style="fill:#ffdd55;fill-rule:evenodd;stroke:#000000;stroke-width:1.89999998;stroke-linecap:round;stroke-linejoin:round;stroke-miterlimit:4;stroke-dasharray:none;stroke-opacity:1"/>
        <path d="M 506.27194,611.66586 L 504.1566,626.47325 L 498.51568,628.5886 L 487.23386,634.22951 L 478.06737,632.81928 L 458.32418,624.35791 L 413.19687,603.20449 L 392.74856,596.15335 L 385.69742,590.51243 L 384.2872,577.11527 L 394.15879,571.47435 L 473.83669,590.51243 L 506.27194,611.66586 z" id="path10565" style="fill:#f9f9f9;fill-rule:evenodd;stroke:#000000;stroke-width:1.89999998;stroke-linecap:round;stroke-linejoin:round;stroke-miterlimit:4;stroke-dasharray:none;stroke-opacity:1"/>
        <path d="M 545.75833,631.40906 L 497.10546,618.01189 L 463.96509,603.90961 L 425.18382,581.34595 L 373.71049,580.64084 L 353.96729,572.88458 L 394.86391,558.7823 L 440.69633,553.14139 L 491.46454,557.37207 L 532.36116,585.57664 L 549.2839,626.47326 L 545.75833,631.40906 z" id="path10561" style="fill:#e9ddaf;fill-opacity:1;fill-rule:evenodd;stroke:#000000;stroke-width:1.89999998;stroke-linecap:round;stroke-linejoin:round;stroke-miterlimit:4;stroke-dasharray:none;stroke-opacity:1"/>
        <path d="M 594.77109,561.81403 C 594.77109,561.81403 567.7882,588.35987 558.45038,586.28175 C 549.1625,584.21474 528.83559,572.88458 528.83559,572.88458 L 470.31112,555.25673 L 457.63107,542.57367 L 462.95678,533.96934 L 473.83669,528.46239 L 494.285,521.41125 L 512.61797,520.00102 L 552.10436,527.75728 L 575.37312,536.92376 L 590.88563,551.73116 L 594.77109,561.81403 z" id="path10569" style="fill:#ffe680;fill-rule:evenodd;stroke:#000000;stroke-width:1.89999998;stroke-linecap:round;stroke-linejoin:round;stroke-miterlimit:4;stroke-dasharray:none;stroke-opacity:1"/>
        <path d="M 535.81441,524.35434 L 522.73369,531.59145 L 512.02826,540.49128 L 500.01642,548.67852 L 489.66729,558.0534 L 490.73617,563.70411 L 491.80506,569.35482 L 492.87394,575.00554 L 493.94282,580.65625 L 518.09252,588.47056 L 516.05804,568.82619 L 527.83235,559.4839 L 538.41901,549.66654 L 549.95579,540.79931 L 559.94863,531.21949 L 551.78239,527.42965 C 540.08941,525.13048 541.13707,525.37944 535.81441,524.35434 z" id="path11220" style="fill:#1c241f;fill-opacity:1;fill-rule:evenodd;stroke:#000000;stroke-width:1.89999998;stroke-linecap:round;stroke-linejoin:round;stroke-miterlimit:4;stroke-dasharray:none;stroke-opacity:1"/>
        <path d="M 549.2126,626.33928 C 540.77711,624.12441 504.2528,613.931 482.29806,603.20449 L 432.23496,577.11527 L 380.05651,574.99992 L 354.6724,572.88458 L 399.79971,553.8465 L 436.46564,548.20559 L 474.5418,553.14139 C 474.5418,553.14139 491.76431,559.96066 499.43565,563.75599 C 507.10698,567.55131 523.1872,577.93914 523.1872,577.93914 L 535.88673,588.39709 L 547.87367,613.7812 L 549.2126,626.33928 z" id="path10563" style="fill:#f4e3d7;fill-opacity:1;fill-rule:evenodd;stroke:#000000;stroke-width:1.89999998;stroke-linecap:round;stroke-linejoin:round;stroke-miterlimit:4;stroke-dasharray:none;stroke-opacity:1"/>
        <path d="M 406.27766,562.58082 C 410.55159,558.41159 417.43462,557.7633 424.47718,557.7633 C 426.12175,557.7633 427.13973,564.1728 428.22414,565.25722 C 434.91648,571.94955 445.28046,562.46516 453.38231,560.4397 C 458.44857,559.17313 458.36644,581.11356 460.87623,586.13315 C 462.24667,588.87402 483.10691,579.09331 486.56968,578.10394 C 488.1514,577.65202 489.78136,577.39024 491.3872,577.03338 C 497.37342,575.70311 496.61579,581.8381 492.99305,586.66843 C 490.08173,590.55018 494.23484,594.63695 497.81057,595.23291 C 501.90454,595.91524 507.35578,593.67198 510.65729,592.02123 C 514.92812,589.88581 521.29836,590.21545 525.10986,591.48595 C 528.64404,592.66401 518.03306,601.59361 517.61593,603.26211 C 516.43406,607.98961 519.99398,610.01234 522.96874,610.75603 C 526.996,611.76285 531.54676,604.88149 535.81546,609.15019" id="path11204" style="fill:none;fill-rule:evenodd;stroke:#ecdacc;stroke-width:9;stroke-linecap:round;stroke-linejoin:round;stroke-miterlimit:4;stroke-dasharray:none;stroke-opacity:1"/>
        <path d="M 410.35345,720.96008 L 413.40129,761.14929" id="path10539" style="fill:none;fill-rule:evenodd;stroke:#000000;stroke-width:1.89999998;stroke-linecap:round;stroke-linejoin:round;stroke-miterlimit:4;stroke-dasharray:none;stroke-opacity:1"/>
        <path d="M 356.08263,574.99992 L 352.55706,596.85846 L 354.6724,611.66585 L 362.42866,629.29371 L 437.87587,646.92156 C 437.87587,646.92156 467.26871,647.58079 471.35928,641.27892 C 476.32403,633.6303 475.99669,608.18494 475.99669,608.18494 L 475.13096,598.23734 L 472.26585,587.53998 L 356.08263,574.99992 z" id="path10547" style="fill:#1c241f;fill-rule:evenodd;stroke:#000000;stroke-width:1.89999998;stroke-linecap:round;stroke-linejoin:round;stroke-miterlimit:4;stroke-dasharray:none;stroke-opacity:1"/>
        <path d="M 356.78774,574.99992 L 365.95423,587.69197 L 394.15879,598.9738 L 422.71159,606.7387 C 422.71159,606.7387 444.99206,611.25539 452.69018,609.55916 C 460.3883,607.86293 469.53551,602.69368 472.07995,598.26177 C 474.62439,593.82986 472.06958,586.63344 472.06958,586.63344 C 472.06958,586.63344 472.73379,583.74277 466.24104,579.11465 C 459.74829,574.48653 425.18381,572.17946 425.18381,572.17946 L 380.05651,570.06412 L 366.65934,573.58969 L 356.78774,574.99992 z" id="path10545" style="fill:#002b11;fill-rule:evenodd;stroke:#000000;stroke-width:1.89999998;stroke-linecap:round;stroke-linejoin:round;stroke-miterlimit:4;stroke-dasharray:none;stroke-opacity:1"/>
        <path d="M 405.87628,584.00494 A 4.1237431,3.7488573 0 1 1 397.62879,584.00494 A 4.1237431,3.7488573 0 1 1 405.87628,584.00494 z" transform="matrix(1.1129743,0,0,1.2242718,-8.0241025,-119.97918)" id="path11158" style="opacity:1;fill:#c52626;fill-opacity:1;fill-rule:evenodd;stroke:#000000;stroke-width:1.62769151;stroke-linecap:round;stroke-linejoin:round;stroke-miterlimit:4;stroke-dasharray:none;stroke-opacity:1"/>
        <path d="M 405.87628,584.00494 A 4.1237431,3.7488573 0 1 1 397.62879,584.00494 A 4.1237431,3.7488573 0 1 1 405.87628,584.00494 z" transform="matrix(1.1129743,0,0,1.2242718,-22.769607,-119.72925)" id="path11146" style="opacity:1;fill:#c52626;fill-opacity:1;fill-rule:evenodd;stroke:#000000;stroke-width:1.62769151;stroke-linecap:round;stroke-linejoin:round;stroke-miterlimit:4;stroke-dasharray:none;stroke-opacity:1"/>
        <path d="M 405.87628,584.00494 A 4.1237431,3.7488573 0 1 1 397.62879,584.00494 A 4.1237431,3.7488573 0 1 1 405.87628,584.00494 z" transform="matrix(1.1129743,0,0,1.2242718,-54.260008,-119.47934)" id="path11112" style="opacity:1;fill:#c52626;fill-opacity:1;fill-rule:evenodd;stroke:#000000;stroke-width:1.62769151;stroke-linecap:round;stroke-linejoin:round;stroke-miterlimit:4;stroke-dasharray:none;stroke-opacity:1"/>
        <path d="M 274.28939,639.16531 L 272.87916,653.9727 C 272.87916,653.9727 275.69962,655.38293 277.81496,658.20339 C 279.93031,661.02385 296.85304,666.66476 296.85304,666.66476 L 312.36556,667.36987 L 323.64738,673.01079 L 341.27523,680.06193 L 353.26217,683.5875 L 362.42866,682.88238 L 370.89003,678.6517 L 376.53094,669.48522 L 394.86391,651.15225 L 334.22409,622.24257 L 290.50702,623.6528 L 274.28939,639.16531 z" id="path10557" style="fill:#f9f9f9;fill-rule:evenodd;stroke:#000000;stroke-width:1.89999998;stroke-linecap:round;stroke-linejoin:round;stroke-miterlimit:4;stroke-dasharray:none;stroke-opacity:1"/>
        <path d="M 251.72574,646.92156 L 282.04565,641.98576 L 302.49396,642.69088 L 331.40364,653.26759 L 360.31332,666.66476 L 377.94117,682.88238 L 384.2872,686.9078 C 390.73442,690.9974 402.2298,677.23255 409.30543,675.12613 C 416.44568,673.00047 427.92924,665.31994 430.94068,659.22972 C 433.14915,654.76339 427.29916,642.69088 427.29916,642.69088 L 391.33834,619.42211 L 352.55706,608.14029 L 322.23715,606.73006 L 296.14793,608.8454 L 265.12291,625.06303 L 243.96949,639.87042 L 251.72574,646.92156 z" id="path10553" style="fill:#bb504a;fill-opacity:1;fill-rule:evenodd;stroke:#000000;stroke-width:1.89999998;stroke-linecap:round;stroke-linejoin:round;stroke-miterlimit:4;stroke-dasharray:none;stroke-opacity:1"/>
        <path d="M 251.35987,634.72936 L 291.91725,629.99882 L 343.39058,639.16531 L 362.42866,651.85736 L 378.64628,670.19033 L 396.97925,670.89544 L 406.85085,662.43407 L 420.95313,657.49828 L 427.29916,646.21645 L 428.00427,642.69088 L 393.45368,618.01188 L 353.96729,606.73006 C 353.96729,606.73006 323.64738,603.20449 315.89113,603.9096 C 308.13487,604.61472 289.8019,610.25563 289.8019,610.25563 L 267.08195,622.24257 L 251.35987,634.72936 z" id="path10555" style="fill:#ca6c62;fill-opacity:1;fill-rule:evenodd;stroke:#000000;stroke-width:1.89999998;stroke-linecap:round;stroke-linejoin:round;stroke-miterlimit:4;stroke-dasharray:none;stroke-opacity:1"/>
        <path d="M 351.14683,565.12832 L 353.26217,575.70503 L 366.65934,591.21754 C 366.65934,591.21754 383.58208,597.56357 383.58208,594.74312 C 383.58208,591.92266 387.10765,581.34595 387.10765,581.34595 L 370.89003,563.01298 L 361.01843,565.12832 L 351.14683,565.12832 z" id="path10549" style="fill:#d7f4d7;fill-rule:evenodd;stroke:#000000;stroke-width:1.89999998;stroke-linecap:round;stroke-linejoin:round;stroke-miterlimit:4;stroke-dasharray:none;stroke-opacity:1"/>
        <path d="M 354.39196,574.75778 L 367.82548,589.98249 L 381.00863,594.46048 L 382.88328,588.00374 L 386.63214,574.25793 L 374.38587,564.17751 L 363.74324,566.13517 L 353.246,566.67675 L 354.39196,574.75778 z" id="path11090" style="fill:#ffffff;fill-opacity:1;fill-rule:evenodd;stroke:#339356;stroke-width:1.89999998;stroke-linecap:round;stroke-linejoin:round;stroke-miterlimit:4;stroke-dasharray:none;stroke-opacity:1"/>
        <path d="M 371.59514,567.94878 L 367.3911,555.64062 L 369.50644,547.17925 L 394.86391,555.25672 L 403.32528,572.17946 L 406.85085,579.93572 L 391.33834,585.57663 L 371.59514,567.94878 z" id="path10551" style="fill:#d7f4d7;fill-rule:evenodd;stroke:#000000;stroke-width:1.89999998;stroke-linecap:round;stroke-linejoin:round;stroke-miterlimit:4;stroke-dasharray:none;stroke-opacity:1"/>
        <path d="M 276.41574,625.74223 L 331.6489,608.74741" id="path10573" style="fill:#6c5353;fill-rule:evenodd;stroke:#dfa9a9;stroke-width:3;stroke-linecap:round;stroke-linejoin:round;stroke-miterlimit:4;stroke-dasharray:none;stroke-opacity:1"/>
        <path d="M 324.15119,628.49139 L 372.13656,616.74497" id="path11084" style="fill:#dfa9a9;fill-opacity:1;fill-rule:evenodd;stroke:#dfa9a9;stroke-width:3;stroke-linecap:round;stroke-linejoin:round;stroke-miterlimit:4;stroke-dasharray:none;stroke-opacity:1"/>
        <path d="M 354.5703,640.93421 L 399.81077,628.78282" id="path11086" style="fill:#dfa9a9;fill-opacity:1;fill-rule:evenodd;stroke:#dfa9a9;stroke-width:2.79792428;stroke-linecap:round;stroke-linejoin:round;stroke-miterlimit:4;stroke-dasharray:none;stroke-opacity:1"/>
        <path d="M 374.63416,656.10961 L 415.14883,640.27388" id="path11088" style="fill:#dfa9a9;fill-opacity:1;fill-rule:evenodd;stroke:#dfa9a9;stroke-width:2.8887639;stroke-linecap:round;stroke-linejoin:round;stroke-miterlimit:4;stroke-dasharray:none;stroke-opacity:1"/>
        <path d="M 369.01251,555.38868 L 372.8861,567.2807 L 380.75893,574.15405 L 391.50566,583.38015 L 404.83508,579.06907 L 393.58851,556.57593 L 385.75741,554.38898 L 377.26,550.89004 L 371.01191,548.72374 L 369.01251,555.38868 z" id="path11092" style="fill:#ffffff;fill-opacity:1;fill-rule:evenodd;stroke:#339356;stroke-width:1.89999998;stroke-linecap:round;stroke-linejoin:round;stroke-miterlimit:4;stroke-dasharray:none;stroke-opacity:1"/>
        <path d="M 405.87628,584.00494 A 4.1237431,3.7488573 0 1 1 397.62879,584.00494 A 4.1237431,3.7488573 0 1 1 405.87628,584.00494 z" transform="matrix(1.1129743,0,0,1.2242718,-51.26093,-128.97642)" id="path11094" style="opacity:1;fill:#c52626;fill-opacity:1;fill-rule:evenodd;stroke:#000000;stroke-width:1.62769151;stroke-linecap:round;stroke-linejoin:round;stroke-miterlimit:4;stroke-dasharray:none;stroke-opacity:1"/>
        <path d="M 405.87628,584.00494 A 4.1237431,3.7488573 0 1 1 397.62879,584.00494 A 4.1237431,3.7488573 0 1 1 405.87628,584.00494 z" transform="matrix(1.1129743,0,0,1.2242718,-43.763208,-132.47537)" id="path11096" style="opacity:1;fill:#c52626;fill-opacity:1;fill-rule:evenodd;stroke:#000000;stroke-width:1.62769151;stroke-linecap:round;stroke-linejoin:round;stroke-miterlimit:4;stroke-dasharray:none;stroke-opacity:1"/>
        <path d="M 405.87628,584.00494 A 4.1237431,3.7488573 0 1 1 397.62879,584.00494 A 4.1237431,3.7488573 0 1 1 405.87628,584.00494 z" transform="matrix(1.1129743,0,0,1.2242718,-45.012827,-124.97765)" id="path11098" style="opacity:1;fill:#c52626;fill-opacity:1;fill-rule:evenodd;stroke:#000000;stroke-width:1.62769151;stroke-linecap:round;stroke-linejoin:round;stroke-miterlimit:4;stroke-dasharray:none;stroke-opacity:1"/>
        <path d="M 405.87628,584.00494 A 4.1237431,3.7488573 0 1 1 397.62879,584.00494 A 4.1237431,3.7488573 0 1 1 405.87628,584.00494 z" transform="matrix(1.1129743,0,0,1.2242718,-57.758941,-122.72834)" id="path11100" style="opacity:1;fill:#c52626;fill-opacity:1;fill-rule:evenodd;stroke:#000000;stroke-width:1.62769151;stroke-linecap:round;stroke-linejoin:round;stroke-miterlimit:4;stroke-dasharray:none;stroke-opacity:1"/>
        <path d="M 405.87628,584.00494 A 4.1237431,3.7488573 0 1 1 397.62879,584.00494 A 4.1237431,3.7488573 0 1 1 405.87628,584.00494 z" transform="matrix(1.1129743,0,0,1.2242718,-48.761684,-119.22941)" id="path11102" style="opacity:1;fill:#c52626;fill-opacity:1;fill-rule:evenodd;stroke:#000000;stroke-width:1.62769151;stroke-linecap:round;stroke-linejoin:round;stroke-miterlimit:4;stroke-dasharray:none;stroke-opacity:1"/>
        <path d="M 405.87628,584.00494 A 4.1237431,3.7488573 0 1 1 397.62879,584.00494 A 4.1237431,3.7488573 0 1 1 405.87628,584.00494 z" transform="matrix(1.1129743,0,0,1.2242718,-50.511151,-124.22789)" id="path11104" style="opacity:1;fill:#c52626;fill-opacity:1;fill-rule:evenodd;stroke:#000000;stroke-width:1.62769151;stroke-linecap:round;stroke-linejoin:round;stroke-miterlimit:4;stroke-dasharray:none;stroke-opacity:1"/>
        <path d="M 405.87628,584.00494 A 4.1237431,3.7488573 0 1 1 397.62879,584.00494 A 4.1237431,3.7488573 0 1 1 405.87628,584.00494 z" transform="matrix(1.1129743,0,0,1.2242718,-64.506884,-121.47873)" id="path11106" style="opacity:1;fill:#c52626;fill-opacity:1;fill-rule:evenodd;stroke:#000000;stroke-width:1.62769151;stroke-linecap:round;stroke-linejoin:round;stroke-miterlimit:4;stroke-dasharray:none;stroke-opacity:1"/>
        <path d="M 405.87628,584.00494 A 4.1237431,3.7488573 0 1 1 397.62879,584.00494 A 4.1237431,3.7488573 0 1 1 405.87628,584.00494 z" transform="matrix(1.1129743,0,0,1.2242718,-59.758332,-130.22605)" id="path11108" style="opacity:1;fill:#c52626;fill-opacity:1;fill-rule:evenodd;stroke:#000000;stroke-width:1.62769151;stroke-linecap:round;stroke-linejoin:round;stroke-miterlimit:4;stroke-dasharray:none;stroke-opacity:1"/>
        <path d="M 405.87628,584.00494 A 4.1237431,3.7488573 0 1 1 397.62879,584.00494 A 4.1237431,3.7488573 0 1 1 405.87628,584.00494 z" transform="matrix(1.1129743,0,0,1.2242718,-42.263665,-116.48025)" id="path11110" style="opacity:1;fill:#c52626;fill-opacity:1;fill-rule:evenodd;stroke:#000000;stroke-width:1.62769151;stroke-linecap:round;stroke-linejoin:round;stroke-miterlimit:4;stroke-dasharray:none;stroke-opacity:1"/>
        <path d="M 405.87628,584.00494 A 4.1237431,3.7488573 0 1 1 397.62879,584.00494 A 4.1237431,3.7488573 0 1 1 405.87628,584.00494 z" transform="matrix(1.1129743,0,0,1.2242718,-37.015265,-122.2285)" id="path11114" style="opacity:1;fill:#c52626;fill-opacity:1;fill-rule:evenodd;stroke:#000000;stroke-width:1.62769151;stroke-linecap:round;stroke-linejoin:round;stroke-miterlimit:4;stroke-dasharray:none;stroke-opacity:1"/>
        <path d="M 405.87628,584.00494 A 4.1237431,3.7488573 0 1 1 397.62879,584.00494 A 4.1237431,3.7488573 0 1 1 405.87628,584.00494 z" transform="matrix(1.1129743,0,0,1.2242718,-30.017398,-120.47903)" id="path11138" style="opacity:1;fill:#c52626;fill-opacity:1;fill-rule:evenodd;stroke:#000000;stroke-width:1.62769151;stroke-linecap:round;stroke-linejoin:round;stroke-miterlimit:4;stroke-dasharray:none;stroke-opacity:1"/>
        <path d="M 405.87628,584.00494 A 4.1237431,3.7488573 0 1 1 397.62879,584.00494 A 4.1237431,3.7488573 0 1 1 405.87628,584.00494 z" transform="matrix(1.1129743,0,0,1.2242718,-34.765951,-116.73017)" id="path11116" style="opacity:1;fill:#c52626;fill-opacity:1;fill-rule:evenodd;stroke:#000000;stroke-width:1.62769151;stroke-linecap:round;stroke-linejoin:round;stroke-miterlimit:4;stroke-dasharray:none;stroke-opacity:1"/>
        <path d="M 405.87628,584.00494 A 4.1237431,3.7488573 0 1 1 397.62879,584.00494 A 4.1237431,3.7488573 0 1 1 405.87628,584.00494 z" transform="matrix(1.1129743,0,0,1.2242718,-37.515113,-129.22637)" id="path11118" style="opacity:1;fill:#c52626;fill-opacity:1;fill-rule:evenodd;stroke:#000000;stroke-width:1.62769151;stroke-linecap:round;stroke-linejoin:round;stroke-miterlimit:4;stroke-dasharray:none;stroke-opacity:1"/>
        <path d="M 405.87628,584.00494 A 4.1237431,3.7488573 0 1 1 397.62879,584.00494 A 4.1237431,3.7488573 0 1 1 405.87628,584.00494 z" transform="matrix(1.1129743,0,0,1.2242718,-41.513893,-143.47202)" id="path11120" style="opacity:1;fill:#c52626;fill-opacity:1;fill-rule:evenodd;stroke:#000000;stroke-width:1.62769151;stroke-linecap:round;stroke-linejoin:round;stroke-miterlimit:4;stroke-dasharray:none;stroke-opacity:1"/>
        <path d="M 405.87628,584.00494 A 4.1237431,3.7488573 0 1 1 397.62879,584.00494 A 4.1237431,3.7488573 0 1 1 405.87628,584.00494 z" transform="matrix(1.1129743,0,0,1.2242718,-38.389846,-137.59882)" id="path11122" style="opacity:1;fill:#c52626;fill-opacity:1;fill-rule:evenodd;stroke:#000000;stroke-width:1.62769151;stroke-linecap:round;stroke-linejoin:round;stroke-miterlimit:4;stroke-dasharray:none;stroke-opacity:1"/>
        <path d="M 405.87628,584.00494 A 4.1237431,3.7488573 0 1 1 397.62879,584.00494 A 4.1237431,3.7488573 0 1 1 405.87628,584.00494 z" transform="matrix(1.1129743,0,0,1.2242718,-22.644646,-130.1011)" id="path11124" style="opacity:1;fill:#c52626;fill-opacity:1;fill-rule:evenodd;stroke:#000000;stroke-width:1.62769151;stroke-linecap:round;stroke-linejoin:round;stroke-miterlimit:4;stroke-dasharray:none;stroke-opacity:1"/>
        <path d="M 405.87628,584.00494 A 4.1237431,3.7488573 0 1 1 397.62879,584.00494 A 4.1237431,3.7488573 0 1 1 405.87628,584.00494 z" transform="matrix(1.1129743,0,0,1.2242718,-25.393808,-142.5973)" id="path11126" style="opacity:1;fill:#c52626;fill-opacity:1;fill-rule:evenodd;stroke:#000000;stroke-width:1.62769151;stroke-linecap:round;stroke-linejoin:round;stroke-miterlimit:4;stroke-dasharray:none;stroke-opacity:1"/>
        <path d="M 405.87628,584.00494 A 4.1237431,3.7488573 0 1 1 397.62879,584.00494 A 4.1237431,3.7488573 0 1 1 405.87628,584.00494 z" transform="matrix(1.1129743,0,0,1.2242718,-33.141445,-140.5979)" id="path11128" style="opacity:1;fill:#c52626;fill-opacity:1;fill-rule:evenodd;stroke:#000000;stroke-width:1.62769151;stroke-linecap:round;stroke-linejoin:round;stroke-miterlimit:4;stroke-dasharray:none;stroke-opacity:1"/>
        <path d="M 405.87628,584.00494 A 4.1237431,3.7488573 0 1 1 397.62879,584.00494 A 4.1237431,3.7488573 0 1 1 405.87628,584.00494 z" transform="matrix(1.1129743,0,0,1.2242718,-30.07988,-127.28945)" id="path11130" style="opacity:1;fill:#c52626;fill-opacity:1;fill-rule:evenodd;stroke:#000000;stroke-width:1.62769151;stroke-linecap:round;stroke-linejoin:round;stroke-miterlimit:4;stroke-dasharray:none;stroke-opacity:1"/>
        <path d="M 405.87628,584.00494 A 4.1237431,3.7488573 0 1 1 397.62879,584.00494 A 4.1237431,3.7488573 0 1 1 405.87628,584.00494 z" transform="matrix(1.1129743,0,0,1.2242718,-29.580032,-134.03738)" id="path11132" style="opacity:1;fill:#c52626;fill-opacity:1;fill-rule:evenodd;stroke:#000000;stroke-width:1.62769151;stroke-linecap:round;stroke-linejoin:round;stroke-miterlimit:4;stroke-dasharray:none;stroke-opacity:1"/>
        <path d="M 405.87628,584.00494 A 4.1237431,3.7488573 0 1 1 397.62879,584.00494 A 4.1237431,3.7488573 0 1 1 405.87628,584.00494 z" transform="matrix(1.1129743,0,0,1.2242718,-23.831785,-136.53662)" id="path11134" style="opacity:1;fill:#c52626;fill-opacity:1;fill-rule:evenodd;stroke:#000000;stroke-width:1.62769151;stroke-linecap:round;stroke-linejoin:round;stroke-miterlimit:4;stroke-dasharray:none;stroke-opacity:1"/>
        <path d="M 405.87628,584.00494 A 4.1237431,3.7488573 0 1 1 397.62879,584.00494 A 4.1237431,3.7488573 0 1 1 405.87628,584.00494 z" transform="matrix(1.1129743,0,0,1.2242718,-15.021969,-132.97522)" id="path11152" style="opacity:1;fill:#c52626;fill-opacity:1;fill-rule:evenodd;stroke:#000000;stroke-width:1.62769151;stroke-linecap:round;stroke-linejoin:round;stroke-miterlimit:4;stroke-dasharray:none;stroke-opacity:1"/>
        <path d="M 405.87628,584.00494 A 4.1237431,3.7488573 0 1 1 397.62879,584.00494 A 4.1237431,3.7488573 0 1 1 405.87628,584.00494 z" transform="matrix(1.1129743,0,0,1.2242718,-16.459031,-139.66068)" id="path11136" style="opacity:1;fill:#c52626;fill-opacity:1;fill-rule:evenodd;stroke:#000000;stroke-width:1.62769151;stroke-linecap:round;stroke-linejoin:round;stroke-miterlimit:4;stroke-dasharray:none;stroke-opacity:1"/>
        <path d="M 405.87628,584.00494 A 4.1237431,3.7488573 0 1 1 397.62879,584.00494 A 4.1237431,3.7488573 0 1 1 405.87628,584.00494 z" transform="matrix(1.1129743,0,0,1.2242718,-28.664895,-113.4191)" id="path11140" style="opacity:1;fill:#c52626;fill-opacity:1;fill-rule:evenodd;stroke:#000000;stroke-width:1.62769151;stroke-linecap:round;stroke-linejoin:round;stroke-miterlimit:4;stroke-dasharray:none;stroke-opacity:1"/>
        <path d="M 405.87628,584.00494 A 4.1237431,3.7488573 0 1 1 397.62879,584.00494 A 4.1237431,3.7488573 0 1 1 405.87628,584.00494 z" transform="matrix(1.1129743,0,0,1.2242718,-20.020445,-111.23184)" id="path11142" style="opacity:1;fill:#c52626;fill-opacity:1;fill-rule:evenodd;stroke:#000000;stroke-width:1.62769151;stroke-linecap:round;stroke-linejoin:round;stroke-miterlimit:4;stroke-dasharray:none;stroke-opacity:1"/>
        <path d="M 405.87628,584.00494 A 4.1237431,3.7488573 0 1 1 397.62879,584.00494 A 4.1237431,3.7488573 0 1 1 405.87628,584.00494 z" transform="matrix(1.1129743,0,0,1.2242718,-15.771741,-117.47994)" id="path11150" style="opacity:1;fill:#c52626;fill-opacity:1;fill-rule:evenodd;stroke:#000000;stroke-width:1.62769151;stroke-linecap:round;stroke-linejoin:round;stroke-miterlimit:4;stroke-dasharray:none;stroke-opacity:1"/>
        <path d="M 405.87628,584.00494 A 4.1237431,3.7488573 0 1 1 397.62879,584.00494 A 4.1237431,3.7488573 0 1 1 405.87628,584.00494 z" transform="matrix(1.1129743,0,0,1.2242718,-12.772655,-111.98162)" id="path11144" style="opacity:1;fill:#c52626;fill-opacity:1;fill-rule:evenodd;stroke:#000000;stroke-width:1.62769151;stroke-linecap:round;stroke-linejoin:round;stroke-miterlimit:4;stroke-dasharray:none;stroke-opacity:1"/>
        <path d="M 405.87628,584.00494 A 4.1237431,3.7488573 0 1 1 397.62879,584.00494 A 4.1237431,3.7488573 0 1 1 405.87628,584.00494 z" transform="matrix(1.1129743,0,0,1.2242718,-16.521513,-124.97766)" id="path11148" style="opacity:1;fill:#c52626;fill-opacity:1;fill-rule:evenodd;stroke:#000000;stroke-width:1.62769151;stroke-linecap:round;stroke-linejoin:round;stroke-miterlimit:4;stroke-dasharray:none;stroke-opacity:1"/>
        <path d="M 405.87628,584.00494 A 4.1237431,3.7488573 0 1 1 397.62879,584.00494 A 4.1237431,3.7488573 0 1 1 405.87628,584.00494 z" transform="matrix(1.1129743,0,0,1.2242718,-7.7741783,-125.4775)" id="path11154" style="opacity:1;fill:#c52626;fill-opacity:1;fill-rule:evenodd;stroke:#000000;stroke-width:1.62769151;stroke-linecap:round;stroke-linejoin:round;stroke-miterlimit:4;stroke-dasharray:none;stroke-opacity:1"/>
        <path d="M 405.87628,584.00494 A 4.1237431,3.7488573 0 1 1 397.62879,584.00494 A 4.1237431,3.7488573 0 1 1 405.87628,584.00494 z" transform="matrix(1.1129743,0,0,1.2242718,-8.0241024,-133.47507)" id="path11156" style="opacity:1;fill:#c52626;fill-opacity:1;fill-rule:evenodd;stroke:#000000;stroke-width:1.62769151;stroke-linecap:round;stroke-linejoin:round;stroke-miterlimit:4;stroke-dasharray:none;stroke-opacity:1"/>
        <path d="M 405.87628,584.00494 A 4.1237431,3.7488573 0 1 1 397.62879,584.00494 A 4.1237431,3.7488573 0 1 1 405.87628,584.00494 z" transform="matrix(1.1129743,0,0,1.2242718,-5.7747882,-114.23093)" id="path11160" style="opacity:1;fill:#c52626;fill-opacity:1;fill-rule:evenodd;stroke:#000000;stroke-width:1.62769151;stroke-linecap:round;stroke-linejoin:round;stroke-miterlimit:4;stroke-dasharray:none;stroke-opacity:1"/>
        <path d="M 405.87628,584.00494 A 4.1237431,3.7488573 0 1 1 397.62879,584.00494 A 4.1237431,3.7488573 0 1 1 405.87628,584.00494 z" transform="matrix(1.1129743,0,0,1.2242718,-2.5257786,-122.72835)" id="path11162" style="opacity:1;fill:#c52626;fill-opacity:1;fill-rule:evenodd;stroke:#000000;stroke-width:1.62769151;stroke-linecap:round;stroke-linejoin:round;stroke-miterlimit:4;stroke-dasharray:none;stroke-opacity:1"/>
        <path d="M 405.87628,584.00494 A 4.1237431,3.7488573 0 1 1 397.62879,584.00494 A 4.1237431,3.7488573 0 1 1 405.87628,584.00494 z" transform="matrix(1.1129743,0,0,1.2242718,-0.7763119,-128.47659)" id="path11164" style="opacity:1;fill:#c52626;fill-opacity:1;fill-rule:evenodd;stroke:#000000;stroke-width:1.62769151;stroke-linecap:round;stroke-linejoin:round;stroke-miterlimit:4;stroke-dasharray:none;stroke-opacity:1"/>
        <path d="M 405.87628,584.00494 A 4.1237431,3.7488573 0 1 1 397.62879,584.00494 A 4.1237431,3.7488573 0 1 1 405.87628,584.00494 z" transform="matrix(1.1129743,0,0,1.2242718,-7.2743311,-139.47324)" id="path11166" style="opacity:1;fill:#c52626;fill-opacity:1;fill-rule:evenodd;stroke:#000000;stroke-width:1.62769151;stroke-linecap:round;stroke-linejoin:round;stroke-miterlimit:4;stroke-dasharray:none;stroke-opacity:1"/>
        <path d="M 405.87628,584.00494 A 4.1237431,3.7488573 0 1 1 397.62879,584.00494 A 4.1237431,3.7488573 0 1 1 405.87628,584.00494 z" transform="matrix(1.1129743,0,0,1.2242718,6.7214026,-117.23002)" id="path11188" style="opacity:1;fill:#c52626;fill-opacity:1;fill-rule:evenodd;stroke:#000000;stroke-width:1.62769151;stroke-linecap:round;stroke-linejoin:round;stroke-miterlimit:4;stroke-dasharray:none;stroke-opacity:1"/>
        <path d="M 405.87628,584.00494 A 4.1237431,3.7488573 0 1 1 397.62879,584.00494 A 4.1237431,3.7488573 0 1 1 405.87628,584.00494 z" transform="matrix(1.1129743,0,0,1.2242718,0.2233834,-116.48025)" id="path11168" style="opacity:1;fill:#c52626;fill-opacity:1;fill-rule:evenodd;stroke:#000000;stroke-width:1.62769151;stroke-linecap:round;stroke-linejoin:round;stroke-miterlimit:4;stroke-dasharray:none;stroke-opacity:1"/>
        <path d="M 405.87628,584.00494 A 4.1237431,3.7488573 0 1 1 397.62879,584.00494 A 4.1237431,3.7488573 0 1 1 405.87628,584.00494 z" transform="matrix(1.1129743,0,0,1.2242718,-0.5263879,-132.7253)" id="path11170" style="opacity:1;fill:#c52626;fill-opacity:1;fill-rule:evenodd;stroke:#000000;stroke-width:1.62769151;stroke-linecap:round;stroke-linejoin:round;stroke-miterlimit:4;stroke-dasharray:none;stroke-opacity:1"/>
        <path d="M 405.87628,584.00494 A 4.1237431,3.7488573 0 1 1 397.62879,584.00494 A 4.1237431,3.7488573 0 1 1 405.87628,584.00494 z" transform="matrix(1.1129743,0,0,1.2242718,8.4708692,-136.22422)" id="path11172" style="opacity:1;fill:#c52626;fill-opacity:1;fill-rule:evenodd;stroke:#000000;stroke-width:1.62769151;stroke-linecap:round;stroke-linejoin:round;stroke-miterlimit:4;stroke-dasharray:none;stroke-opacity:1"/>
        <path d="M 405.87628,584.00494 A 4.1237431,3.7488573 0 1 1 397.62879,584.00494 A 4.1237431,3.7488573 0 1 1 405.87628,584.00494 z" transform="matrix(1.1129743,0,0,1.2242718,15.218812,-129.47629)" id="path11174" style="opacity:1;fill:#c52626;fill-opacity:1;fill-rule:evenodd;stroke:#000000;stroke-width:1.62769151;stroke-linecap:round;stroke-linejoin:round;stroke-miterlimit:4;stroke-dasharray:none;stroke-opacity:1"/>
        <path d="M 405.87628,584.00494 A 4.1237431,3.7488573 0 1 1 397.62879,584.00494 A 4.1237431,3.7488573 0 1 1 405.87628,584.00494 z" transform="matrix(1.1129743,0,0,1.2242718,21.216984,-127.22698)" id="path11176" style="opacity:1;fill:#c52626;fill-opacity:1;fill-rule:evenodd;stroke:#000000;stroke-width:1.62769151;stroke-linecap:round;stroke-linejoin:round;stroke-miterlimit:4;stroke-dasharray:none;stroke-opacity:1"/>
        <path d="M 405.87628,584.00494 A 4.1237431,3.7488573 0 1 1 397.62879,584.00494 A 4.1237431,3.7488573 0 1 1 405.87628,584.00494 z" transform="matrix(1.1129743,0,0,1.2242718,7.7210975,-129.97614)" id="path11178" style="opacity:1;fill:#c52626;fill-opacity:1;fill-rule:evenodd;stroke:#000000;stroke-width:1.62769151;stroke-linecap:round;stroke-linejoin:round;stroke-miterlimit:4;stroke-dasharray:none;stroke-opacity:1"/>
        <path d="M 405.87628,584.00494 A 4.1237431,3.7488573 0 1 1 397.62879,584.00494 A 4.1237431,3.7488573 0 1 1 405.87628,584.00494 z" transform="matrix(1.1129743,0,0,1.2242718,13.719269,-123.72804)" id="path11180" style="opacity:1;fill:#c52626;fill-opacity:1;fill-rule:evenodd;stroke:#000000;stroke-width:1.62769151;stroke-linecap:round;stroke-linejoin:round;stroke-miterlimit:4;stroke-dasharray:none;stroke-opacity:1"/>
        <path d="M 405.87628,584.00494 A 4.1237431,3.7488573 0 1 1 397.62879,584.00494 A 4.1237431,3.7488573 0 1 1 405.87628,584.00494 z" transform="matrix(1.1129743,0,0,1.2242718,3.9722406,-124.72773)" id="path11182" style="opacity:1;fill:#c52626;fill-opacity:1;fill-rule:evenodd;stroke:#000000;stroke-width:1.62769151;stroke-linecap:round;stroke-linejoin:round;stroke-miterlimit:4;stroke-dasharray:none;stroke-opacity:1"/>
        <path d="M 405.87628,584.00494 A 4.1237431,3.7488573 0 1 1 397.62879,584.00494 A 4.1237431,3.7488573 0 1 1 405.87628,584.00494 z" transform="matrix(1.1129743,0,0,1.2242718,-7.5242547,-109.48238)" id="path11184" style="opacity:1;fill:#c52626;fill-opacity:1;fill-rule:evenodd;stroke:#000000;stroke-width:1.62769151;stroke-linecap:round;stroke-linejoin:round;stroke-miterlimit:4;stroke-dasharray:none;stroke-opacity:1"/>
        <path d="M 405.87628,584.00494 A 4.1237431,3.7488573 0 1 1 397.62879,584.00494 A 4.1237431,3.7488573 0 1 1 405.87628,584.00494 z" transform="matrix(1.1129743,0,0,1.2242718,0.723231,-108.73261)" id="path11186" style="opacity:1;fill:#c52626;fill-opacity:1;fill-rule:evenodd;stroke:#000000;stroke-width:1.62769151;stroke-linecap:round;stroke-linejoin:round;stroke-miterlimit:4;stroke-dasharray:none;stroke-opacity:1"/>
        <path d="M 405.87628,584.00494 A 4.1237431,3.7488573 0 1 1 397.62879,584.00494 A 4.1237431,3.7488573 0 1 1 405.87628,584.00494 z" transform="matrix(1.1129743,0,0,1.2242718,8.2209455,-109.7323)" id="path11190" style="opacity:1;fill:#c52626;fill-opacity:1;fill-rule:evenodd;stroke:#000000;stroke-width:1.62769151;stroke-linecap:round;stroke-linejoin:round;stroke-miterlimit:4;stroke-dasharray:none;stroke-opacity:1"/>
        <path d="M 405.87628,584.00494 A 4.1237431,3.7488573 0 1 1 397.62879,584.00494 A 4.1237431,3.7488573 0 1 1 405.87628,584.00494 z" transform="matrix(1.1129743,0,0,1.2242718,14.968888,-112.48146)" id="path11192" style="opacity:1;fill:#c52626;fill-opacity:1;fill-rule:evenodd;stroke:#000000;stroke-width:1.62769151;stroke-linecap:round;stroke-linejoin:round;stroke-miterlimit:4;stroke-dasharray:none;stroke-opacity:1"/>
        <path d="M 405.87628,584.00494 A 4.1237431,3.7488573 0 1 1 397.62879,584.00494 A 4.1237431,3.7488573 0 1 1 405.87628,584.00494 z" transform="matrix(1.1129743,0,0,1.2242718,20.96706,-114.73078)" id="path11196" style="opacity:1;fill:#c52626;fill-opacity:1;fill-rule:evenodd;stroke:#000000;stroke-width:1.62769151;stroke-linecap:round;stroke-linejoin:round;stroke-miterlimit:4;stroke-dasharray:none;stroke-opacity:1"/>
        <path d="M 405.87628,584.00494 A 4.1237431,3.7488573 0 1 1 397.62879,584.00494 A 4.1237431,3.7488573 0 1 1 405.87628,584.00494 z" transform="matrix(1.1129743,0,0,1.2242718,15.968584,-118.47964)" id="path11194" style="opacity:1;fill:#c52626;fill-opacity:1;fill-rule:evenodd;stroke:#000000;stroke-width:1.62769151;stroke-linecap:round;stroke-linejoin:round;stroke-miterlimit:4;stroke-dasharray:none;stroke-opacity:1"/>
        <path d="M 365.59637,415.91406 A 58.880821,41.751854 0 1 1 247.83472,415.91406 A 58.880821,41.751854 0 1 1 365.59637,415.91406 z" transform="matrix(1.0789401,0,0,0.7295886,-10.02723,113.90968)" id="path11198" style="opacity:1;fill:#f0e8e8;fill-opacity:1;fill-rule:evenodd;stroke:#000000;stroke-width:2.14148927;stroke-linecap:round;stroke-linejoin:round;stroke-miterlimit:4;stroke-dasharray:none;stroke-opacity:1"/>
        <path d="M 372.01973,431.7048 A 49.781055,27.031649 0 1 1 272.45762,431.7048 A 49.781055,27.031649 0 1 1 372.01973,431.7048 z" transform="matrix(1.0386453,0,0,0.7936986,-14.327608,75.103207)" id="path11200" style="opacity:1;fill:#c5baba;fill-opacity:1;fill-rule:evenodd;stroke:#000000;stroke-width:2.09262872;stroke-linecap:round;stroke-linejoin:round;stroke-miterlimit:4;stroke-dasharray:none;stroke-opacity:1"/>
        <path d="M 372.01973,431.7048 A 49.781055,27.031649 0 1 1 272.45762,431.7048 A 49.781055,27.031649 0 1 1 372.01973,431.7048 z" transform="matrix(0.9247286,0,0,0.5323862,22.648921,194.36232)" id="path11202" style="opacity:1;fill:#82bd7d;fill-opacity:1;fill-rule:evenodd;stroke:#000000;stroke-width:2.70790267;stroke-linecap:round;stroke-linejoin:round;stroke-miterlimit:4;stroke-dasharray:none;stroke-opacity:1"/>
        <path d="M 260.09157,441.43306 L 259.99687,448.73437 L 259.71278,456.03566 L 259.42869,462.76878 L 258.67111,476.79356 L 258.1964,483.62383 L 258.10046,491.87457 C 258.10046,491.87457 262.08366,509.61006 261.70438,511.12719 C 261.51474,511.88576 260.66147,517.57424 259.95032,522.5049 C 259.23916,527.43556 259.1436,531.7031 259.1436,531.7031 L 284.84056,547.15895 L 321.63088,550.19321 C 321.63088,550.19321 326.94083,547.15895 323.90658,546.77967 C 320.87232,546.40039 289.01266,535.02194 289.01266,535.02194 L 341.73282,535.7805 L 305.70105,521.74708 L 273.08283,513.0236 L 276.87564,507.71366 L 313.66597,507.33437 L 340.59497,512.26504 L 351.21486,503.54156 L 308.35603,492.16311 L 286.35769,485.71532 L 290.90907,476.99184 L 294.3226,474.71615 L 331.87149,484.57747 L 354.62839,477.37112 L 365.62756,467.13051 C 365.62756,467.13051 329.97508,467.88908 328.07867,467.88908 C 326.18227,467.88908 273.84139,455.37278 273.84139,455.37278 L 263.60078,442.4772 L 260.09157,441.43306 z" id="path11216" style="fill:#e2d4d4;fill-opacity:1;fill-rule:evenodd;stroke:none;stroke-width:1px;stroke-linecap:round;stroke-linejoin:round;stroke-opacity:1"/>
        <path d="M 346.11026,475.7311 C 346.18492,480.61832 339.98735,479.2205 336.8731,480.6087 C 334.81406,480.10619 330.38144,485.33383 334.50208,484.9682 C 337.63515,484.4951 342.24635,481.8664 344.42611,482.42557 C 343.91207,486.12817 339.32439,485.22786 336.52722,486.65311 C 333.8024,487.69749 330.55265,488.54965 328.57013,491.20858 C 329.64261,493.56556 333.24113,490.92917 335.44769,490.656 C 337.37404,490.35616 340.08649,487.6199 340.79314,488.65945 C 339.8336,492.69041 336.72869,494.43244 333.49391,495.0162 C 331.79678,494.98315 326.95507,497.14944 329.57383,498.62398 C 331.96048,499.07585 336.23399,495.48228 337.48881,497.16367 C 335.54551,500.28689 332.09166,502.51284 329.59178,505.2322 C 326.62483,508.81172 332.67094,508.89053 334.03744,506.08821 C 336.95592,502.62029 339.14686,498.65128 342.09336,495.24711 C 346.03183,493.08691 350.5225,492.7153 354.67814,491.05796 C 358.29029,488.93598 354.66003,494.44337 355.35736,496.39713 C 355.93624,501.20302 351.87545,500.24182 349.53238,502.72001 C 350.35449,506.10172 358.94739,502.56692 360.50881,499.27972 C 362.1233,495.76936 358.45043,491.41163 361.09314,488.95995 C 363.08444,488.49392 369.28163,487.43882 367.29335,484.82201 C 364.60666,484.99896 357.93878,488.64022 360.96428,482.86879 C 363.04794,481.07934 368.67404,482.11485 368.45978,478.60929 C 365.46889,477.39286 361.964,479.67488 358.68188,480.09729 C 354.64008,481.35197 350.59829,482.2543 346.55649,483.50898 C 346.70034,478.71889 352.51469,479.63344 355.74456,478.42127 C 358.64853,476.85064 364.03624,477.40678 365.10616,473.95553 C 362.27587,472.59802 358.33267,475.00552 355.02129,475.4516 C 352.92268,475.68973 346.61855,480.12915 349.15335,475.59389 C 352.37403,472.742 356.73639,472.92834 360.41911,471.2893 C 362.32292,470.36669 366.09875,469.70309 364.75152,466.88704 C 360.88428,466.53843 359.34105,467.9992 355.38203,468.75612 C 353.63388,468.82002 350.88434,471.0759 350.54262,470.19772 C 350.22455,467.23949 345.76073,467.81259 346.51761,470.56213 C 344.28097,473.71095 338.96095,473.66462 336.65689,474.52344 C 334.79228,475.19242 329.58442,477.45498 332.02972,479.80006 C 335.44346,479.6004 338.86328,477.71811 342.29195,476.91642 C 343.56472,476.52131 344.8375,476.12621 346.11026,475.7311 z M 356.94412,487.73407 C 352.44067,489.13198 347.93721,490.52997 343.43375,491.92795 C 344.19578,487.32439 349.20232,485.97096 352.77871,485.27019 C 355.57858,483.44519 358.33635,484.22599 356.94969,487.63785 L 356.94412,487.73407 z M 342.90149,496.61964 C 342.31389,499.66817 347.39049,503.23024 349.51807,500.36951 C 349.87386,497.83251 345.25082,494.27583 342.90149,496.61964 z M 353.5668,528.09085 C 357.05556,524.80405 350.81105,524.06765 349.0407,525.65939 C 342.73396,527.61705 335.01779,529.57485 328.71106,531.53261 C 325.32328,534.2848 332.32566,535.96802 334.01593,534.15981 C 340.53289,532.13679 347.04985,530.11384 353.5668,528.09085 z M 334.84277,538.19135 C 330.58924,538.89519 330.07405,544.07081 330.34752,547.16906 C 329.09851,550.81497 331.17847,554.3777 335.21222,552.01737 C 339.62245,550.25558 344.34178,549.91466 348.5477,547.4703 C 352.29647,544.73326 350.25943,540.57291 351.20513,537.09322 C 351.70973,532.42204 346.20871,534.35738 343.32384,535.61513 C 340.49496,536.43416 337.66826,537.3035 334.84277,538.19135 z M 334.89233,549.3729 C 332.30012,548.32418 334.27032,544.9213 335.00467,542.79483 C 338.77751,540.57818 342.49181,539.63448 346.37841,538.13911 C 348.57591,539.40084 347.77985,543.3811 346.56734,545.36832 C 342.83949,547.5824 338.74537,547.79048 334.89233,549.3729 z M 328.19925,524.14316 C 324.54905,527.36435 331.03073,529.08258 332.8814,527.36504 C 341.4524,524.70442 350.02339,522.04377 358.59439,519.38315 C 362.06435,521.10734 358.69726,526.78224 359.53681,530.13763 C 359.21522,535.78617 360.48679,536.85294 360.11996,542.50826 C 358.69914,546.71893 350.45851,547.98526 349.99354,552.52607 C 352.77249,554.21522 359.95004,548.91545 362.7607,546.03178 C 364.62531,542.31167 364.36535,540.04544 365.04401,536.26392 C 365.44354,529.56473 363.40088,524.27073 363.68116,517.59005 C 362.67484,514.04533 356.95534,514.50586 354.20937,515.0909 C 345.2457,517.87343 337.16292,521.36064 328.19925,524.14316 z" id="text11206" style="font-size:42.91944122px;font-style:normal;font-variant:normal;font-weight:normal;font-stretch:normal;fill:#0055d4;fill-opacity:1;stroke:none;stroke-width:1px;stroke-linecap:round;stroke-linejoin:round;stroke-opacity:1;font-family:Tahoma;-inkscape-font-specification:Tahoma"/>
        <path d="M 313.75019,417.7874 L 301.36996,419.556 L 288.63602,424.86181 L 286.15998,427.69158 L 295.00299,431.93622 L 301.36996,426.63042 L 304.55345,429.8139 L 313.75019,435.47343 L 325.42297,428.75274 L 336.74203,431.93622 L 348.41481,430.52134 L 361.85619,424.50809 L 351.59829,417.43368 L 345.23132,415.66508 L 329.66761,421.67833 L 322.23948,414.25019 L 313.75019,417.7874 z" id="path11218" style="fill:#8bbb86;fill-opacity:1;fill-rule:evenodd;stroke:none;stroke-width:1px;stroke-linecap:round;stroke-linejoin:round;stroke-opacity:1"/>
      </g>
    </g>
  </g>
</svg>
